<svg width="17" height="15" viewBox="0 0 17 15" fill="none" xmlns="http://www.w3.org/2000/svg">
<path d="M1.70692 1.73034L1.70695 1.7303C2.47683 0.941011 3.51814 0.5 4.60117 0.5C5.6842 0.5 6.72551 0.941011 7.49539 1.7303L7.49597 1.7309C7.66911 1.90781 7.88986 2.12583 8.15722 2.38418L8.50507 2.72032L8.85253 2.38378C9.11911 2.12558 9.33933 1.90778 9.51225 1.73109C10.2789 0.948571 11.313 0.510302 12.3891 0.507346C13.4653 0.50439 14.5016 0.936968 15.2723 1.71522C16.0433 2.49389 16.4858 3.55577 16.4997 4.67082C16.5135 5.7844 16.0986 6.85632 15.3488 7.65476L8.79625 14.3746C8.79623 14.3747 8.79621 14.3747 8.79619 14.3747C8.71642 14.4565 8.61096 14.5 8.50375 14.5C8.3965 14.5 8.29103 14.4564 8.21124 14.3746L1.65824 7.65528C0.90891 6.86131 0.491643 5.79462 0.500127 4.68454C0.508619 3.57345 0.943861 2.51248 1.70692 1.73034Z" stroke="black"/>
</svg>
