<svg width="72" height="72" viewBox="0 0 72 72" fill="none" xmlns="http://www.w3.org/2000/svg">
<g clip-path="url(#clip0_1736_709)">
<path d="M67.6579 0H41.8015C39.4043 0 37.4609 1.94442 37.4609 4.34298V30.2138C37.4609 32.6124 39.4043 34.5568 41.8015 34.5568H67.6579C70.0552 34.5568 71.9985 32.6124 71.9985 30.2138V4.34298C71.9985 1.94442 70.0552 0 67.6579 0Z" fill="white"/>
<path d="M67.6579 37.4434H41.8015C39.4043 37.4434 37.4609 39.3878 37.4609 41.7863V67.6572C37.4609 70.0557 39.4043 72.0002 41.8015 72.0002H67.6579C70.0552 72.0002 71.9985 70.0557 71.9985 67.6572V41.7863C71.9985 39.3878 70.0552 37.4434 67.6579 37.4434Z" fill="white"/>
<path d="M54.7323 30.2407C61.8871 30.2407 67.6872 24.4373 67.6872 17.2785C67.6872 10.1198 61.8871 4.31641 54.7323 4.31641C47.5775 4.31641 41.7773 10.1198 41.7773 17.2785C41.7773 24.4373 47.5775 30.2407 54.7323 30.2407Z" fill="#00CA11"/>
<path d="M54.7319 42.5078L41.4297 66.5479H68.034L54.7319 42.5078Z" fill="#001FFF"/>
<path d="M30.197 0H4.34057C1.94334 0 0 1.94442 0 4.34298V30.2138C0 32.6124 1.94334 34.5568 4.34057 34.5568H30.197C32.5942 34.5568 34.5376 32.6124 34.5376 30.2138V4.34298C34.5376 1.94442 32.5942 0 30.197 0Z" fill="white"/>
<path d="M30.197 37.4434H4.34057C1.94334 37.4434 0 39.3878 0 41.7863V67.6572C0 70.0557 1.94334 72.0002 4.34057 72.0002H30.197C32.5942 72.0002 34.5376 70.0557 34.5376 67.6572V41.7863C34.5376 39.3878 32.5942 37.4434 30.197 37.4434Z" fill="white"/>
<path d="M29.0498 42.9492H5.50391V66.5082H29.0498V42.9492Z" fill="#9E00FF"/>
<path d="M31.5675 17.2727L17.2695 2.9668L2.97157 17.2727L17.2695 31.5786L31.5675 17.2727Z" fill="#FF0000"/>
</g>
<defs>
<clipPath id="clip0_1736_709">
<rect width="72" height="72" fill="white"/>
</clipPath>
</defs>
</svg>
