<svg width="14" height="15" viewBox="0 0 14 15" fill="none" xmlns="http://www.w3.org/2000/svg">
<path d="M9.88674 12.295L9.93457 11.9568L9.63689 11.7893L4.173 8.71426L3.85941 8.53778L3.59247 8.77909C3.43198 8.92418 3.24463 9.0399 3.02617 9.12537L3.20833 9.591L3.02617 9.12537C2.81592 9.20762 2.58671 9.25041 2.33414 9.25H2.33333C1.81056 9.25 1.38524 9.07867 1.02762 8.73383C0.670712 8.38966 0.5 7.98795 0.5 7.5C0.5 7.01205 0.670712 6.61034 1.02762 6.26617C1.38524 5.92133 1.81056 5.75 2.33333 5.75C2.58616 5.75 2.81565 5.79302 3.02617 5.87538C3.2449 5.96096 3.43241 6.07659 3.59297 6.22135L3.85985 6.46197L4.173 6.28573L9.63689 3.21073L9.98432 3.0152L9.87107 2.63296C9.85395 2.57519 9.84519 2.52579 9.84198 2.48395C9.83687 2.41755 9.83383 2.33943 9.83333 2.24875C9.83362 1.76137 10.0043 1.36004 10.361 1.01617C10.7186 0.671331 11.1439 0.5 11.6667 0.5C12.1894 0.5 12.6148 0.671331 12.9724 1.01617C13.3293 1.36034 13.5 1.76205 13.5 2.25C13.5 2.73795 13.3293 3.13966 12.9724 3.48383C12.6148 3.82867 12.1894 4 11.6667 4C11.4138 4 11.1844 3.95698 10.9738 3.87462C10.7551 3.78904 10.5676 3.67341 10.407 3.52865L10.1402 3.28803L9.827 3.46427L4.36311 6.53927L4.01567 6.7348L4.12893 7.11705C4.14623 7.1754 4.15542 7.22605 4.15903 7.26971C4.16435 7.33392 4.16713 7.40952 4.16667 7.4974C4.1662 7.58832 4.16336 7.66817 4.15854 7.73756C4.15579 7.7771 4.14756 7.82305 4.13099 7.87621L4.01062 8.26236L4.36311 8.46073L9.827 11.5357L10.1406 11.7122L10.4075 11.4709C10.5678 11.326 10.7549 11.2106 10.9731 11.1257C11.1839 11.0436 11.4138 11.0005 11.6669 11C12.1896 11.0001 12.6148 11.1714 12.9724 11.5162C13.3293 11.8603 13.5 12.2621 13.5 12.75C13.5 13.2379 13.3293 13.6397 12.9724 13.9838C12.6148 14.3287 12.1894 14.5 11.6667 14.5C11.1439 14.5 10.7186 14.3287 10.361 13.9838C10.004 13.6397 9.83333 13.2379 9.83333 12.75V12.7502C9.83334 12.7502 9.83336 12.7475 9.83366 12.7415C9.83398 12.7348 9.83455 12.7257 9.83547 12.7138C9.83735 12.6897 9.84038 12.658 9.84486 12.6177C9.85381 12.5371 9.86765 12.43 9.88674 12.295Z" stroke="black"/>
</svg>
