<svg width="206" height="233" viewBox="0 0 206 233" fill="none" xmlns="http://www.w3.org/2000/svg">
<path d="M47.3155 12.376H39.8275V31H35.4115V12.376H27.9235V8.92H47.3155V12.376ZM64.7005 18.296C64.7965 19.16 64.8285 20.024 64.8285 21.4V31H60.4125V22.008C60.4125 21.304 60.4125 20.504 60.3485 19.64C60.2205 17.848 59.2285 16.632 57.0845 16.632C54.9405 16.664 53.2445 18.488 53.2445 23.224V31H48.8285V7.32H53.2445V16.728L54.5565 14.712C55.7725 13.848 57.0205 13.528 58.6525 13.528C62.2685 13.528 64.3485 15.32 64.7005 18.296ZM84.1595 22.136C84.1595 22.552 84.1595 23.064 84.0955 23.64H71.9995C72.2875 27.224 73.8875 28.344 75.9355 28.344C77.8235 28.344 79.1995 27.288 79.4875 25.464H83.9035C83.0395 29.432 79.8395 31.448 75.8395 31.448C71.1675 31.448 67.5515 28.536 67.5515 22.552C67.5515 17.336 70.9755 13.528 76.1915 13.528C81.4075 13.528 84.1595 17.496 84.1595 22.136ZM75.9995 16.632C73.9515 16.632 72.5115 17.944 72.1275 20.76H79.6155C79.3275 18.072 78.1115 16.632 75.9995 16.632ZM106.222 24.344H98.7983L96.5903 31H91.8863L99.8542 8.92H105.39L113.198 31H108.398L106.222 24.344ZM102.542 12.696L99.9183 20.856H105.102L102.542 12.696ZM140.327 17.752C140.455 18.616 140.487 19.48 140.487 20.856V31H136.071V22.136C136.071 21.144 136.039 20.216 135.943 19.352C135.719 17.592 134.759 16.632 133.063 16.632C131.079 16.632 129.959 18.328 129.959 22.264V31H125.575V22.136C125.575 21.144 125.543 20.216 125.447 19.352C125.223 17.592 124.231 16.632 122.535 16.632C120.551 16.632 119.463 18.328 119.463 22.264V31H115.047V13.976H119.463V16.568L120.711 14.52C121.671 13.848 122.791 13.528 124.327 13.528C127.111 13.528 128.871 14.904 129.543 16.76L131.207 14.52C132.167 13.848 133.319 13.528 134.855 13.528C138.087 13.528 139.943 15.416 140.327 17.752ZM159.816 22.136C159.816 22.552 159.816 23.064 159.752 23.64H147.656C147.944 27.224 149.544 28.344 151.592 28.344C153.48 28.344 154.856 27.288 155.144 25.464H159.56C158.696 29.432 155.496 31.448 151.496 31.448C146.824 31.448 143.208 28.536 143.208 22.552C143.208 17.336 146.632 13.528 151.848 13.528C157.064 13.528 159.816 17.496 159.816 22.136ZM151.656 16.632C149.608 16.632 148.168 17.944 147.784 20.76H155.272C154.984 18.072 153.768 16.632 151.656 16.632ZM172.748 31L172.428 28.504L171.596 30.328C170.412 31.128 168.972 31.448 167.372 31.448C164.428 31.448 161.9 29.72 161.9 26.488C161.9 22.744 165.1 20.632 171.276 20.632H172.364V20.28C172.364 19.768 172.364 19.256 172.3 18.68C172.172 17.496 171.404 16.632 169.676 16.632C167.916 16.632 166.956 17.656 166.828 19.512L162.54 19.544C162.668 15.704 165.772 13.528 169.836 13.528C174.604 13.528 176.396 15.608 176.652 18.552C176.716 19.352 176.748 20.248 176.748 21.176V26.68C176.748 27.96 176.812 29.112 177.068 31H172.748ZM169.068 28.344C170.86 28.344 172.364 27.096 172.364 24.728V23.352C168.844 23.096 166.476 23.896 166.476 26.136C166.476 27.64 167.5 28.344 169.068 28.344Z" fill="black"/>
<mask id="path-2-inside-1_941_757" fill="white">
<path d="M51.8629 54.344H44.4389L42.2309 61H37.5269L45.4949 38.92H51.0309L58.8389 61H54.0389L51.8629 54.344ZM48.1829 42.696L45.5589 50.856H50.7429L48.1829 42.696ZM69.3599 43.56C69.8719 43.56 70.2239 43.592 70.6079 43.688V47.24C66.9279 46.984 65.1039 48.616 65.1039 53.192V61H60.6879V43.976H65.1039V47.08L66.4479 44.712C67.2799 43.944 68.3999 43.56 69.3599 43.56ZM80.0479 43.528C84.6559 43.528 87.5039 46.344 87.8239 50.12H83.4719C83.0559 47.656 81.7759 46.632 79.9519 46.632C77.7119 46.632 76.1119 48.456 76.1119 52.328C76.1119 56.552 77.7119 58.344 79.9199 58.344C81.6479 58.344 82.9279 57.256 83.3759 55.112H87.7919C87.0559 59.304 83.9199 61.448 79.6639 61.448C75.0239 61.448 71.5359 58.504 71.5359 52.616C71.5359 46.792 75.3759 43.528 80.0479 43.528ZM106.497 48.296C106.593 49.16 106.625 50.024 106.625 51.4V61H102.209V52.008C102.209 51.304 102.209 50.504 102.145 49.64C102.017 47.848 101.025 46.632 98.8814 46.632C96.7374 46.664 95.0414 48.488 95.0414 53.224V61H90.6254V37.32H95.0414V46.728L96.3534 44.712C97.5694 43.848 98.8174 43.528 100.449 43.528C104.065 43.528 106.145 45.32 106.497 48.296ZM112.708 37.64C114.148 37.64 115.14 38.6 115.14 39.976C115.14 41.384 114.148 42.312 112.708 42.312C111.268 42.312 110.276 41.384 110.276 39.976C110.276 38.6 111.268 37.64 112.708 37.64ZM114.916 61H110.5V43.976H114.916V61ZM135.128 43.976L128.536 61H123.608L116.984 43.976H121.88L126.168 57.672L130.36 43.976H135.128ZM152.019 52.136C152.019 52.552 152.019 53.064 151.955 53.64H139.859C140.147 57.224 141.747 58.344 143.795 58.344C145.683 58.344 147.059 57.288 147.347 55.464H151.763C150.899 59.432 147.699 61.448 143.699 61.448C139.027 61.448 135.411 58.536 135.411 52.552C135.411 47.336 138.835 43.528 144.051 43.528C149.267 43.528 152.019 47.496 152.019 52.136ZM143.859 46.632C141.811 46.632 140.371 47.944 139.987 50.76H147.475C147.187 48.072 145.971 46.632 143.859 46.632ZM161.143 43.528C165.207 43.528 167.511 45.8 167.895 48.904H163.479C163.191 47.336 162.327 46.44 160.855 46.44C159.543 46.44 158.839 47.208 158.839 48.264C158.839 49.544 159.895 50.216 162.711 50.92C166.199 51.816 168.247 53.224 168.247 56.36C168.247 59.784 165.143 61.448 161.239 61.448C157.111 61.448 154.199 59.656 153.719 55.816H158.135C158.487 57.672 159.767 58.536 161.303 58.536C162.711 58.536 163.799 57.928 163.799 56.68C163.799 55.368 162.679 54.632 159.735 53.896C156.567 53.096 154.391 51.72 154.391 48.776C154.391 45.512 157.079 43.528 161.143 43.528Z"/>
</mask>
<path d="M51.8629 54.344H44.4389L42.2309 61H37.5269L45.4949 38.92H51.0309L58.8389 61H54.0389L51.8629 54.344ZM48.1829 42.696L45.5589 50.856H50.7429L48.1829 42.696ZM69.3599 43.56C69.8719 43.56 70.2239 43.592 70.6079 43.688V47.24C66.9279 46.984 65.1039 48.616 65.1039 53.192V61H60.6879V43.976H65.1039V47.08L66.4479 44.712C67.2799 43.944 68.3999 43.56 69.3599 43.56ZM80.0479 43.528C84.6559 43.528 87.5039 46.344 87.8239 50.12H83.4719C83.0559 47.656 81.7759 46.632 79.9519 46.632C77.7119 46.632 76.1119 48.456 76.1119 52.328C76.1119 56.552 77.7119 58.344 79.9199 58.344C81.6479 58.344 82.9279 57.256 83.3759 55.112H87.7919C87.0559 59.304 83.9199 61.448 79.6639 61.448C75.0239 61.448 71.5359 58.504 71.5359 52.616C71.5359 46.792 75.3759 43.528 80.0479 43.528ZM106.497 48.296C106.593 49.16 106.625 50.024 106.625 51.4V61H102.209V52.008C102.209 51.304 102.209 50.504 102.145 49.64C102.017 47.848 101.025 46.632 98.8814 46.632C96.7374 46.664 95.0414 48.488 95.0414 53.224V61H90.6254V37.32H95.0414V46.728L96.3534 44.712C97.5694 43.848 98.8174 43.528 100.449 43.528C104.065 43.528 106.145 45.32 106.497 48.296ZM112.708 37.64C114.148 37.64 115.14 38.6 115.14 39.976C115.14 41.384 114.148 42.312 112.708 42.312C111.268 42.312 110.276 41.384 110.276 39.976C110.276 38.6 111.268 37.64 112.708 37.64ZM114.916 61H110.5V43.976H114.916V61ZM135.128 43.976L128.536 61H123.608L116.984 43.976H121.88L126.168 57.672L130.36 43.976H135.128ZM152.019 52.136C152.019 52.552 152.019 53.064 151.955 53.64H139.859C140.147 57.224 141.747 58.344 143.795 58.344C145.683 58.344 147.059 57.288 147.347 55.464H151.763C150.899 59.432 147.699 61.448 143.699 61.448C139.027 61.448 135.411 58.536 135.411 52.552C135.411 47.336 138.835 43.528 144.051 43.528C149.267 43.528 152.019 47.496 152.019 52.136ZM143.859 46.632C141.811 46.632 140.371 47.944 139.987 50.76H147.475C147.187 48.072 145.971 46.632 143.859 46.632ZM161.143 43.528C165.207 43.528 167.511 45.8 167.895 48.904H163.479C163.191 47.336 162.327 46.44 160.855 46.44C159.543 46.44 158.839 47.208 158.839 48.264C158.839 49.544 159.895 50.216 162.711 50.92C166.199 51.816 168.247 53.224 168.247 56.36C168.247 59.784 165.143 61.448 161.239 61.448C157.111 61.448 154.199 59.656 153.719 55.816H158.135C158.487 57.672 159.767 58.536 161.303 58.536C162.711 58.536 163.799 57.928 163.799 56.68C163.799 55.368 162.679 54.632 159.735 53.896C156.567 53.096 154.391 51.72 154.391 48.776C154.391 45.512 157.079 43.528 161.143 43.528Z" fill="black"/>
<path d="M51.8629 54.344L52.8134 54.0333L52.588 53.344H51.8629V54.344ZM44.4389 54.344V53.344H43.717L43.4897 54.0291L44.4389 54.344ZM42.2309 61V62H42.9527L43.18 61.3149L42.2309 61ZM37.5269 61L36.5862 60.6606L36.1029 62H37.5269V61ZM45.4949 38.92V37.92H44.7926L44.5542 38.5806L45.4949 38.92ZM51.0309 38.92L51.9737 38.5866L51.7379 37.92H51.0309V38.92ZM58.8389 61V62H60.2532L59.7817 60.6666L58.8389 61ZM54.0389 61L53.0884 61.3107L53.3137 62H54.0389V61ZM48.1829 42.696L49.137 42.3967L48.1946 39.3928L47.2309 42.3899L48.1829 42.696ZM45.5589 50.856L44.6069 50.5499L44.1869 51.856H45.5589V50.856ZM50.7429 50.856V51.856H52.1047L51.697 50.5567L50.7429 50.856ZM51.8629 53.344H44.4389V55.344H51.8629V53.344ZM43.4897 54.0291L41.2817 60.6851L43.18 61.3149L45.388 54.6589L43.4897 54.0291ZM42.2309 60H37.5269V62H42.2309V60ZM38.4675 61.3394L46.4355 39.2594L44.5542 38.5806L36.5862 60.6606L38.4675 61.3394ZM45.4949 39.92H51.0309V37.92H45.4949V39.92ZM50.0881 39.2534L57.8961 61.3334L59.7817 60.6666L51.9737 38.5866L50.0881 39.2534ZM58.8389 60H54.0389V62H58.8389V60ZM54.9894 60.6893L52.8134 54.0333L50.9124 54.6547L53.0884 61.3107L54.9894 60.6893ZM47.2309 42.3899L44.6069 50.5499L46.5109 51.1621L49.1349 43.0021L47.2309 42.3899ZM45.5589 51.856H50.7429V49.856H45.5589V51.856ZM51.697 50.5567L49.137 42.3967L47.2287 42.9953L49.7887 51.1553L51.697 50.5567ZM70.6079 43.688H71.6079V42.9072L70.8504 42.7179L70.6079 43.688ZM70.6079 47.24L70.5385 48.2376L71.6079 48.312V47.24H70.6079ZM65.1039 61V62H66.1039V61H65.1039ZM60.6879 61H59.6879V62H60.6879V61ZM60.6879 43.976V42.976H59.6879V43.976H60.6879ZM65.1039 43.976H66.1039V42.976H65.1039V43.976ZM65.1039 47.08H64.1039V50.8678L65.9736 47.5736L65.1039 47.08ZM66.4479 44.712L65.7696 43.9772L65.6551 44.0829L65.5782 44.2184L66.4479 44.712ZM69.3599 44.56C69.8236 44.56 70.0876 44.5887 70.3653 44.6581L70.8504 42.7179C70.3601 42.5953 69.9201 42.56 69.3599 42.56V44.56ZM69.6079 43.688V47.24H71.6079V43.688H69.6079ZM70.6773 46.2424C68.7036 46.1051 66.9685 46.455 65.7567 47.7091C64.5706 48.9367 64.1039 50.8122 64.1039 53.192H66.1039C66.1039 50.9958 66.5491 49.7673 67.195 49.0989C67.8152 48.457 68.8321 48.1189 70.5385 48.2376L70.6773 46.2424ZM64.1039 53.192V61H66.1039V53.192H64.1039ZM65.1039 60H60.6879V62H65.1039V60ZM61.6879 61V43.976H59.6879V61H61.6879ZM60.6879 44.976H65.1039V42.976H60.6879V44.976ZM64.1039 43.976V47.08H66.1039V43.976H64.1039ZM65.9736 47.5736L67.3176 45.2056L65.5782 44.2184L64.2342 46.5864L65.9736 47.5736ZM67.1262 45.4468C67.7644 44.8577 68.6386 44.56 69.3599 44.56V42.56C68.1611 42.56 66.7954 43.0303 65.7696 43.9772L67.1262 45.4468ZM87.8239 50.12V51.12H88.9122L88.8203 50.0356L87.8239 50.12ZM83.4719 50.12L82.4858 50.2865L82.6266 51.12H83.4719V50.12ZM83.3759 55.112V54.112H82.5632L82.397 54.9075L83.3759 55.112ZM87.7919 55.112L88.7768 55.2849L88.9827 54.112H87.7919V55.112ZM80.0479 44.528C82.144 44.528 83.7613 45.1652 84.8809 46.1567C86.0004 47.148 86.6873 48.5501 86.8274 50.2044L88.8203 50.0356C88.6405 47.9139 87.7433 46.02 86.2068 44.6593C84.6704 43.2988 82.5597 42.528 80.0479 42.528V44.528ZM87.8239 49.12H83.4719V51.12H87.8239V49.12ZM84.4579 49.9535C84.2273 48.5875 83.7349 47.4849 82.9248 46.7234C82.1001 45.9482 81.0589 45.632 79.9519 45.632V47.632C80.6688 47.632 81.1796 47.8278 81.555 48.1806C81.9448 48.5471 82.3004 49.1885 82.4858 50.2865L84.4579 49.9535ZM79.9519 45.632C78.5267 45.632 77.2587 46.2295 76.3817 47.4419C75.5335 48.6143 75.1119 50.2735 75.1119 52.328H77.1119C77.1119 50.5105 77.4902 49.3217 78.0021 48.6141C78.4851 47.9465 79.1371 47.632 79.9519 47.632V45.632ZM75.1119 52.328C75.1119 54.5428 75.5275 56.279 76.3658 57.4894C77.2391 58.7502 78.5067 59.344 79.9199 59.344V57.344C79.1251 57.344 78.4887 57.0418 78.0099 56.3506C77.4963 55.609 77.1119 54.3372 77.1119 52.328H75.1119ZM79.9199 59.344C81.0058 59.344 82.0063 58.9964 82.8018 58.2708C83.5868 57.5548 84.0995 56.5379 84.3547 55.3165L82.397 54.9075C82.2042 55.8301 81.853 56.4292 81.454 56.7932C81.0655 57.1476 80.5619 57.344 79.9199 57.344V59.344ZM83.3759 56.112H87.7919V54.112H83.3759V56.112ZM86.8069 54.9391C86.478 56.8126 85.6308 58.1615 84.4464 59.0531C83.25 59.9538 81.6282 60.448 79.6639 60.448V62.448C81.9556 62.448 84.0297 61.8702 85.6493 60.6509C87.281 59.4225 88.3697 57.6034 88.7768 55.2849L86.8069 54.9391ZM79.6639 60.448C77.5561 60.448 75.8003 59.7831 74.5718 58.5377C73.3448 57.2938 72.5359 55.3609 72.5359 52.616H70.5359C70.5359 55.7591 71.471 58.2422 73.1479 59.9423C74.8235 61.6409 77.1317 62.448 79.6639 62.448V60.448ZM72.5359 52.616C72.5359 49.9316 73.4155 47.9266 74.747 46.5951C76.083 45.2591 77.9467 44.528 80.0479 44.528V42.528C77.477 42.528 75.0847 43.4289 73.3328 45.1809C71.5762 46.9374 70.5359 49.4764 70.5359 52.616H72.5359ZM106.497 48.296L107.491 48.1856L107.49 48.1785L106.497 48.296ZM106.625 61V62H107.625V61H106.625ZM102.209 61H101.209V62H102.209V61ZM102.145 49.64L101.148 49.7112L101.148 49.7139L102.145 49.64ZM98.8814 46.632V45.632H98.8739L98.8665 45.6321L98.8814 46.632ZM95.0414 61V62H96.0414V61H95.0414ZM90.6254 61H89.6254V62H90.6254V61ZM90.6254 37.32V36.32H89.6254V37.32H90.6254ZM95.0414 37.32H96.0414V36.32H95.0414V37.32ZM95.0414 46.728H94.0414V50.0979L95.8795 47.2735L95.0414 46.728ZM96.3534 44.712L95.7742 43.8968L95.619 44.007L95.5152 44.1665L96.3534 44.712ZM105.503 48.4064C105.594 49.2165 105.625 50.0381 105.625 51.4H107.625C107.625 50.0099 107.593 49.1035 107.491 48.1856L105.503 48.4064ZM105.625 51.4V61H107.625V51.4H105.625ZM106.625 60H102.209V62H106.625V60ZM103.209 61V52.008H101.209V61H103.209ZM103.209 52.008C103.209 51.3068 103.21 50.472 103.143 49.5661L101.148 49.7139C101.209 50.536 101.209 51.3012 101.209 52.008H103.209ZM103.143 49.5688C103.067 48.514 102.728 47.5031 101.974 46.7542C101.209 45.9954 100.146 45.632 98.8814 45.632V47.632C99.7609 47.632 100.266 47.8766 100.565 48.1738C100.874 48.4809 101.095 48.974 101.148 49.7112L103.143 49.5688ZM98.8665 45.6321C97.4714 45.6529 96.2004 46.2789 95.3219 47.6144C94.4783 48.8969 94.0414 50.7609 94.0414 53.224H96.0414C96.0414 50.9511 96.4525 49.5351 96.9928 48.7136C97.4983 47.9451 98.1473 47.6431 98.8963 47.6319L98.8665 45.6321ZM94.0414 53.224V61H96.0414V53.224H94.0414ZM95.0414 60H90.6254V62H95.0414V60ZM91.6254 61V37.32H89.6254V61H91.6254ZM90.6254 38.32H95.0414V36.32H90.6254V38.32ZM94.0414 37.32V46.728H96.0414V37.32H94.0414ZM95.8795 47.2735L97.1915 45.2575L95.5152 44.1665L94.2032 46.1825L95.8795 47.2735ZM96.9326 45.5272C97.9421 44.8099 98.974 44.528 100.449 44.528V42.528C98.6607 42.528 97.1966 42.8861 95.7742 43.8968L96.9326 45.5272ZM100.449 44.528C102.098 44.528 103.278 44.9357 104.069 45.5742C104.849 46.2035 105.354 47.1396 105.504 48.4135L107.49 48.1785C107.289 46.4764 106.578 45.0285 105.325 44.0178C104.085 43.0163 102.417 42.528 100.449 42.528V44.528ZM114.916 61V62H115.916V61H114.916ZM110.5 61H109.5V62H110.5V61ZM110.5 43.976V42.976H109.5V43.976H110.5ZM114.916 43.976H115.916V42.976H114.916V43.976ZM112.708 38.64C113.203 38.64 113.552 38.8015 113.771 39.0124C113.987 39.2208 114.14 39.5372 114.14 39.976H116.14C116.14 39.0388 115.797 38.1872 115.158 37.5716C114.521 36.9585 113.654 36.64 112.708 36.64V38.64ZM114.14 39.976C114.14 40.4356 113.984 40.7481 113.774 40.9482C113.56 41.1527 113.212 41.312 112.708 41.312V43.312C113.645 43.312 114.513 43.0073 115.154 42.3958C115.8 41.7799 116.14 40.9244 116.14 39.976H114.14ZM112.708 41.312C112.205 41.312 111.857 41.1527 111.642 40.9482C111.432 40.7481 111.276 40.4356 111.276 39.976H109.276C109.276 40.9244 109.616 41.7799 110.262 42.3958C110.904 43.0073 111.772 43.312 112.708 43.312V41.312ZM111.276 39.976C111.276 39.5372 111.429 39.2208 111.646 39.0124C111.865 38.8015 112.214 38.64 112.708 38.64V36.64C111.763 36.64 110.896 36.9585 110.259 37.5716C109.619 38.1872 109.276 39.0388 109.276 39.976H111.276ZM114.916 60H110.5V62H114.916V60ZM111.5 61V43.976H109.5V61H111.5ZM110.5 44.976H114.916V42.976H110.5V44.976ZM113.916 43.976V61H115.916V43.976H113.916ZM135.128 43.976L136.061 44.3371L136.588 42.976H135.128V43.976ZM128.536 61V62H129.222L129.469 61.3611L128.536 61ZM123.608 61L122.676 61.3626L122.924 62H123.608V61ZM116.984 43.976V42.976H115.522L116.052 44.3386L116.984 43.976ZM121.88 43.976L122.835 43.6772L122.615 42.976H121.88V43.976ZM126.168 57.672L125.214 57.9708L126.179 61.0535L127.125 57.9647L126.168 57.672ZM130.36 43.976V42.976H129.621L129.404 43.6833L130.36 43.976ZM134.196 43.6149L127.604 60.6389L129.469 61.3611L136.061 44.3371L134.196 43.6149ZM128.536 60H123.608V62H128.536V60ZM124.54 60.6374L117.916 43.6134L116.052 44.3386L122.676 61.3626L124.54 60.6374ZM116.984 44.976H121.88V42.976H116.984V44.976ZM120.926 44.2748L125.214 57.9708L127.123 57.3732L122.835 43.6772L120.926 44.2748ZM127.125 57.9647L131.317 44.2687L129.404 43.6833L125.212 57.3793L127.125 57.9647ZM130.36 44.976H135.128V42.976H130.36V44.976ZM151.955 53.64V54.64H152.85L152.949 53.7504L151.955 53.64ZM139.859 53.64V52.64H138.775L138.862 53.7201L139.859 53.64ZM147.347 55.464V54.464H146.492L146.359 55.308L147.347 55.464ZM151.763 55.464L152.74 55.6768L153.004 54.464H151.763V55.464ZM139.987 50.76L138.996 50.6249L138.841 51.76H139.987V50.76ZM147.475 50.76V51.76H148.588L148.469 50.6535L147.475 50.76ZM151.019 52.136C151.019 52.5533 151.018 53.0149 150.961 53.5296L152.949 53.7504C153.02 53.1131 153.019 52.5507 153.019 52.136H151.019ZM151.955 52.64H139.859V54.64H151.955V52.64ZM138.862 53.7201C139.016 55.6321 139.531 57.0666 140.442 58.025C141.376 59.007 142.584 59.344 143.795 59.344V57.344C142.958 57.344 142.342 57.121 141.892 56.647C141.419 56.1494 140.99 55.2319 140.856 53.5599L138.862 53.7201ZM143.795 59.344C144.925 59.344 145.972 59.0263 146.795 58.3694C147.624 57.7073 148.155 56.7548 148.335 55.62L146.359 55.308C146.25 55.9972 145.95 56.4847 145.547 56.8066C145.137 57.1337 144.553 57.344 143.795 57.344V59.344ZM147.347 56.464H151.763V54.464H147.347V56.464ZM150.786 55.2512C150.404 57.0044 149.522 58.2802 148.328 59.1287C147.121 59.9856 145.535 60.448 143.699 60.448V62.448C145.863 62.448 147.876 61.9024 149.486 60.7593C151.107 59.6078 152.258 57.8916 152.74 55.6768L150.786 55.2512ZM143.699 60.448C141.569 60.448 139.771 59.7874 138.507 58.534C137.248 57.2851 136.411 55.3389 136.411 52.552H134.411C134.411 55.7491 135.382 58.2509 137.099 59.954C138.811 61.6526 141.156 62.448 143.699 62.448V60.448ZM136.411 52.552C136.411 50.1636 137.192 48.1635 138.503 46.769C139.809 45.3806 141.698 44.528 144.051 44.528V42.528C141.188 42.528 138.757 43.5794 137.046 45.399C135.341 47.2125 134.411 49.7244 134.411 52.552H136.411ZM144.051 44.528C146.382 44.528 148.09 45.4038 149.23 46.7407C150.387 48.0977 151.019 50.0049 151.019 52.136H153.019C153.019 49.6271 152.275 47.2303 150.752 45.4433C149.212 43.6362 146.935 42.528 144.051 42.528V44.528ZM143.859 45.632C142.606 45.632 141.462 46.0412 140.583 46.9414C139.723 47.8229 139.206 49.0823 138.996 50.6249L140.978 50.8951C141.151 49.6217 141.547 48.8171 142.014 48.3386C142.463 47.8788 143.063 47.632 143.859 47.632V45.632ZM139.987 51.76H147.475V49.76H139.987V51.76ZM148.469 50.6535C148.313 49.1982 147.894 47.9403 147.106 47.0326C146.289 46.0905 145.167 45.632 143.859 45.632V47.632C144.663 47.632 145.205 47.8935 145.596 48.3434C146.016 48.8277 146.348 49.6338 146.481 50.8665L148.469 50.6535ZM167.895 48.904V49.904H169.026L168.887 48.7812L167.895 48.904ZM163.479 48.904L162.495 49.0847L162.646 49.904H163.479V48.904ZM162.711 50.92L162.96 49.9514L162.953 49.9499L162.711 50.92ZM153.719 55.816V54.816H152.586L152.727 55.94L153.719 55.816ZM158.135 55.816L159.117 55.6297L158.963 54.816H158.135V55.816ZM159.735 53.896L159.49 54.8656L159.492 54.8661L159.735 53.896ZM161.143 44.528C162.987 44.528 164.336 45.0407 165.254 45.816C166.17 46.5899 166.737 47.6926 166.902 49.0268L168.887 48.7812C168.668 47.0114 167.892 45.4261 166.544 44.288C165.198 43.1513 163.363 42.528 161.143 42.528V44.528ZM167.895 47.904H163.479V49.904H167.895V47.904ZM164.462 48.7233C164.294 47.8075 163.938 46.9735 163.305 46.3638C162.654 45.7372 161.808 45.44 160.855 45.44V47.44C161.374 47.44 161.696 47.5908 161.917 47.8042C162.156 48.0345 162.376 48.4325 162.495 49.0847L164.462 48.7233ZM160.855 45.44C160.004 45.44 159.231 45.6923 158.665 46.2321C158.096 46.7746 157.839 47.5089 157.839 48.264H159.839C159.839 47.9631 159.934 47.7854 160.045 47.6799C160.158 47.5717 160.394 47.44 160.855 47.44V45.44ZM157.839 48.264C157.839 48.7283 157.937 49.1845 158.176 49.6106C158.413 50.0313 158.756 50.3644 159.159 50.6367C159.933 51.1591 161.052 51.5361 162.468 51.8901L162.953 49.9499C161.554 49.5999 160.737 49.2889 160.279 48.9793C160.066 48.8356 159.968 48.7167 159.919 48.6294C159.873 48.5475 159.839 48.4397 159.839 48.264H157.839ZM162.462 51.8886C164.156 52.3237 165.35 52.85 166.117 53.5422C166.833 54.1889 167.247 55.0442 167.247 56.36H169.247C169.247 54.5398 168.637 53.1231 167.457 52.0578C166.328 51.038 164.754 50.4123 162.96 49.9514L162.462 51.8886ZM167.247 56.36C167.247 57.7178 166.655 58.6864 165.652 59.3564C164.605 60.0551 163.068 60.448 161.239 60.448V62.448C163.313 62.448 165.281 62.0089 166.762 61.0196C168.287 60.0016 169.247 58.4262 169.247 56.36H167.247ZM161.239 60.448C159.307 60.448 157.772 60.0271 156.691 59.2573C155.637 58.5071 154.92 57.3618 154.711 55.692L152.727 55.94C152.998 58.1102 153.977 59.7809 155.531 60.8867C157.057 61.9729 159.043 62.448 161.239 62.448V60.448ZM153.719 56.816H158.135V54.816H153.719V56.816ZM157.152 56.0023C157.366 57.1274 157.88 58.032 158.647 58.6507C159.41 59.2653 160.347 59.536 161.303 59.536V57.536C160.723 57.536 160.251 57.3747 159.902 57.0933C159.558 56.816 159.256 56.3606 159.117 55.6297L157.152 56.0023ZM161.303 59.536C162.131 59.536 162.976 59.36 163.645 58.9C164.358 58.4104 164.799 57.6418 164.799 56.68H162.799C162.799 56.9662 162.696 57.1256 162.512 57.252C162.285 57.408 161.882 57.536 161.303 57.536V59.536ZM164.799 56.68C164.799 56.202 164.695 55.735 164.447 55.2999C164.202 54.8712 163.85 54.5279 163.433 54.2447C162.628 53.6985 161.463 53.2972 159.977 52.9259L159.492 54.8661C160.951 55.2308 161.818 55.5655 162.309 55.8993C162.54 56.0561 162.651 56.1888 162.709 56.2901C162.763 56.385 162.799 56.502 162.799 56.68H164.799ZM159.98 52.9264C158.452 52.5406 157.294 52.0444 156.529 51.3832C155.81 50.7622 155.391 49.959 155.391 48.776H153.391C153.391 50.537 154.06 51.8938 155.221 52.8968C156.336 53.8596 157.85 54.4514 159.49 54.8656L159.98 52.9264ZM155.391 48.776C155.391 47.4498 155.922 46.4333 156.851 45.7218C157.808 44.9887 159.261 44.528 161.143 44.528V42.528C158.961 42.528 157.038 43.0593 155.635 44.1342C154.203 45.2307 153.391 46.8382 153.391 48.776H155.391Z" fill="black" mask="url(#path-2-inside-1_941_757)"/>
<path d="M51.8629 54.344L52.8134 54.0333L52.588 53.344H51.8629V54.344ZM44.4389 54.344V53.344H43.717L43.4897 54.0291L44.4389 54.344ZM42.2309 61V62H42.9527L43.18 61.3149L42.2309 61ZM37.5269 61L36.5862 60.6606L36.1029 62H37.5269V61ZM45.4949 38.92V37.92H44.7926L44.5542 38.5806L45.4949 38.92ZM51.0309 38.92L51.9737 38.5866L51.7379 37.92H51.0309V38.92ZM58.8389 61V62H60.2532L59.7817 60.6666L58.8389 61ZM54.0389 61L53.0884 61.3107L53.3137 62H54.0389V61ZM48.1829 42.696L49.137 42.3967L48.1946 39.3928L47.2309 42.3899L48.1829 42.696ZM45.5589 50.856L44.6069 50.5499L44.1869 51.856H45.5589V50.856ZM50.7429 50.856V51.856H52.1047L51.697 50.5567L50.7429 50.856ZM51.8629 53.344H44.4389V55.344H51.8629V53.344ZM43.4897 54.0291L41.2817 60.6851L43.18 61.3149L45.388 54.6589L43.4897 54.0291ZM42.2309 60H37.5269V62H42.2309V60ZM38.4675 61.3394L46.4355 39.2594L44.5542 38.5806L36.5862 60.6606L38.4675 61.3394ZM45.4949 39.92H51.0309V37.92H45.4949V39.92ZM50.0881 39.2534L57.8961 61.3334L59.7817 60.6666L51.9737 38.5866L50.0881 39.2534ZM58.8389 60H54.0389V62H58.8389V60ZM54.9894 60.6893L52.8134 54.0333L50.9124 54.6547L53.0884 61.3107L54.9894 60.6893ZM47.2309 42.3899L44.6069 50.5499L46.5109 51.1621L49.1349 43.0021L47.2309 42.3899ZM45.5589 51.856H50.7429V49.856H45.5589V51.856ZM51.697 50.5567L49.137 42.3967L47.2287 42.9953L49.7887 51.1553L51.697 50.5567ZM70.6079 43.688H71.6079V42.9072L70.8504 42.7179L70.6079 43.688ZM70.6079 47.24L70.5385 48.2376L71.6079 48.312V47.24H70.6079ZM65.1039 61V62H66.1039V61H65.1039ZM60.6879 61H59.6879V62H60.6879V61ZM60.6879 43.976V42.976H59.6879V43.976H60.6879ZM65.1039 43.976H66.1039V42.976H65.1039V43.976ZM65.1039 47.08H64.1039V50.8678L65.9736 47.5736L65.1039 47.08ZM66.4479 44.712L65.7696 43.9772L65.6551 44.0829L65.5782 44.2184L66.4479 44.712ZM69.3599 44.56C69.8236 44.56 70.0876 44.5887 70.3653 44.6581L70.8504 42.7179C70.3601 42.5953 69.9201 42.56 69.3599 42.56V44.56ZM69.6079 43.688V47.24H71.6079V43.688H69.6079ZM70.6773 46.2424C68.7036 46.1051 66.9685 46.455 65.7567 47.7091C64.5706 48.9367 64.1039 50.8122 64.1039 53.192H66.1039C66.1039 50.9958 66.5491 49.7673 67.195 49.0989C67.8152 48.457 68.8321 48.1189 70.5385 48.2376L70.6773 46.2424ZM64.1039 53.192V61H66.1039V53.192H64.1039ZM65.1039 60H60.6879V62H65.1039V60ZM61.6879 61V43.976H59.6879V61H61.6879ZM60.6879 44.976H65.1039V42.976H60.6879V44.976ZM64.1039 43.976V47.08H66.1039V43.976H64.1039ZM65.9736 47.5736L67.3176 45.2056L65.5782 44.2184L64.2342 46.5864L65.9736 47.5736ZM67.1262 45.4468C67.7644 44.8577 68.6386 44.56 69.3599 44.56V42.56C68.1611 42.56 66.7954 43.0303 65.7696 43.9772L67.1262 45.4468ZM87.8239 50.12V51.12H88.9122L88.8203 50.0356L87.8239 50.12ZM83.4719 50.12L82.4858 50.2865L82.6266 51.12H83.4719V50.12ZM83.3759 55.112V54.112H82.5632L82.397 54.9075L83.3759 55.112ZM87.7919 55.112L88.7768 55.2849L88.9827 54.112H87.7919V55.112ZM80.0479 44.528C82.144 44.528 83.7613 45.1652 84.8809 46.1567C86.0004 47.148 86.6873 48.5501 86.8274 50.2044L88.8203 50.0356C88.6405 47.9139 87.7433 46.02 86.2068 44.6593C84.6704 43.2988 82.5597 42.528 80.0479 42.528V44.528ZM87.8239 49.12H83.4719V51.12H87.8239V49.12ZM84.4579 49.9535C84.2273 48.5875 83.7349 47.4849 82.9248 46.7234C82.1001 45.9482 81.0589 45.632 79.9519 45.632V47.632C80.6688 47.632 81.1796 47.8278 81.555 48.1806C81.9448 48.5471 82.3004 49.1885 82.4858 50.2865L84.4579 49.9535ZM79.9519 45.632C78.5267 45.632 77.2587 46.2295 76.3817 47.4419C75.5335 48.6143 75.1119 50.2735 75.1119 52.328H77.1119C77.1119 50.5105 77.4902 49.3217 78.0021 48.6141C78.4851 47.9465 79.1371 47.632 79.9519 47.632V45.632ZM75.1119 52.328C75.1119 54.5428 75.5275 56.279 76.3658 57.4894C77.2391 58.7502 78.5067 59.344 79.9199 59.344V57.344C79.1251 57.344 78.4887 57.0418 78.0099 56.3506C77.4963 55.609 77.1119 54.3372 77.1119 52.328H75.1119ZM79.9199 59.344C81.0058 59.344 82.0063 58.9964 82.8018 58.2708C83.5868 57.5548 84.0995 56.5379 84.3547 55.3165L82.397 54.9075C82.2042 55.8301 81.853 56.4292 81.454 56.7932C81.0655 57.1476 80.5619 57.344 79.9199 57.344V59.344ZM83.3759 56.112H87.7919V54.112H83.3759V56.112ZM86.8069 54.9391C86.478 56.8126 85.6308 58.1615 84.4464 59.0531C83.25 59.9538 81.6282 60.448 79.6639 60.448V62.448C81.9556 62.448 84.0297 61.8702 85.6493 60.6509C87.281 59.4225 88.3697 57.6034 88.7768 55.2849L86.8069 54.9391ZM79.6639 60.448C77.5561 60.448 75.8003 59.7831 74.5718 58.5377C73.3448 57.2938 72.5359 55.3609 72.5359 52.616H70.5359C70.5359 55.7591 71.471 58.2422 73.1479 59.9423C74.8235 61.6409 77.1317 62.448 79.6639 62.448V60.448ZM72.5359 52.616C72.5359 49.9316 73.4155 47.9266 74.747 46.5951C76.083 45.2591 77.9467 44.528 80.0479 44.528V42.528C77.477 42.528 75.0847 43.4289 73.3328 45.1809C71.5762 46.9374 70.5359 49.4764 70.5359 52.616H72.5359ZM106.497 48.296L107.491 48.1856L107.49 48.1785L106.497 48.296ZM106.625 61V62H107.625V61H106.625ZM102.209 61H101.209V62H102.209V61ZM102.145 49.64L101.148 49.7112L101.148 49.7139L102.145 49.64ZM98.8814 46.632V45.632H98.8739L98.8665 45.6321L98.8814 46.632ZM95.0414 61V62H96.0414V61H95.0414ZM90.6254 61H89.6254V62H90.6254V61ZM90.6254 37.32V36.32H89.6254V37.32H90.6254ZM95.0414 37.32H96.0414V36.32H95.0414V37.32ZM95.0414 46.728H94.0414V50.0979L95.8795 47.2735L95.0414 46.728ZM96.3534 44.712L95.7742 43.8968L95.619 44.007L95.5152 44.1665L96.3534 44.712ZM105.503 48.4064C105.594 49.2165 105.625 50.0381 105.625 51.4H107.625C107.625 50.0099 107.593 49.1035 107.491 48.1856L105.503 48.4064ZM105.625 51.4V61H107.625V51.4H105.625ZM106.625 60H102.209V62H106.625V60ZM103.209 61V52.008H101.209V61H103.209ZM103.209 52.008C103.209 51.3068 103.21 50.472 103.143 49.5661L101.148 49.7139C101.209 50.536 101.209 51.3012 101.209 52.008H103.209ZM103.143 49.5688C103.067 48.514 102.728 47.5031 101.974 46.7542C101.209 45.9954 100.146 45.632 98.8814 45.632V47.632C99.7609 47.632 100.266 47.8766 100.565 48.1738C100.874 48.4809 101.095 48.974 101.148 49.7112L103.143 49.5688ZM98.8665 45.6321C97.4714 45.6529 96.2004 46.2789 95.3219 47.6144C94.4783 48.8969 94.0414 50.7609 94.0414 53.224H96.0414C96.0414 50.9511 96.4525 49.5351 96.9928 48.7136C97.4983 47.9451 98.1473 47.6431 98.8963 47.6319L98.8665 45.6321ZM94.0414 53.224V61H96.0414V53.224H94.0414ZM95.0414 60H90.6254V62H95.0414V60ZM91.6254 61V37.32H89.6254V61H91.6254ZM90.6254 38.32H95.0414V36.32H90.6254V38.32ZM94.0414 37.32V46.728H96.0414V37.32H94.0414ZM95.8795 47.2735L97.1915 45.2575L95.5152 44.1665L94.2032 46.1825L95.8795 47.2735ZM96.9326 45.5272C97.9421 44.8099 98.974 44.528 100.449 44.528V42.528C98.6607 42.528 97.1966 42.8861 95.7742 43.8968L96.9326 45.5272ZM100.449 44.528C102.098 44.528 103.278 44.9357 104.069 45.5742C104.849 46.2035 105.354 47.1396 105.504 48.4135L107.49 48.1785C107.289 46.4764 106.578 45.0285 105.325 44.0178C104.085 43.0163 102.417 42.528 100.449 42.528V44.528ZM114.916 61V62H115.916V61H114.916ZM110.5 61H109.5V62H110.5V61ZM110.5 43.976V42.976H109.5V43.976H110.5ZM114.916 43.976H115.916V42.976H114.916V43.976ZM112.708 38.64C113.203 38.64 113.552 38.8015 113.771 39.0124C113.987 39.2208 114.14 39.5372 114.14 39.976H116.14C116.14 39.0388 115.797 38.1872 115.158 37.5716C114.521 36.9585 113.654 36.64 112.708 36.64V38.64ZM114.14 39.976C114.14 40.4356 113.984 40.7481 113.774 40.9482C113.56 41.1527 113.212 41.312 112.708 41.312V43.312C113.645 43.312 114.513 43.0073 115.154 42.3958C115.8 41.7799 116.14 40.9244 116.14 39.976H114.14ZM112.708 41.312C112.205 41.312 111.857 41.1527 111.642 40.9482C111.432 40.7481 111.276 40.4356 111.276 39.976H109.276C109.276 40.9244 109.616 41.7799 110.262 42.3958C110.904 43.0073 111.772 43.312 112.708 43.312V41.312ZM111.276 39.976C111.276 39.5372 111.429 39.2208 111.646 39.0124C111.865 38.8015 112.214 38.64 112.708 38.64V36.64C111.763 36.64 110.896 36.9585 110.259 37.5716C109.619 38.1872 109.276 39.0388 109.276 39.976H111.276ZM114.916 60H110.5V62H114.916V60ZM111.5 61V43.976H109.5V61H111.5ZM110.5 44.976H114.916V42.976H110.5V44.976ZM113.916 43.976V61H115.916V43.976H113.916ZM135.128 43.976L136.061 44.3371L136.588 42.976H135.128V43.976ZM128.536 61V62H129.222L129.469 61.3611L128.536 61ZM123.608 61L122.676 61.3626L122.924 62H123.608V61ZM116.984 43.976V42.976H115.522L116.052 44.3386L116.984 43.976ZM121.88 43.976L122.835 43.6772L122.615 42.976H121.88V43.976ZM126.168 57.672L125.214 57.9708L126.179 61.0535L127.125 57.9647L126.168 57.672ZM130.36 43.976V42.976H129.621L129.404 43.6833L130.36 43.976ZM134.196 43.6149L127.604 60.6389L129.469 61.3611L136.061 44.3371L134.196 43.6149ZM128.536 60H123.608V62H128.536V60ZM124.54 60.6374L117.916 43.6134L116.052 44.3386L122.676 61.3626L124.54 60.6374ZM116.984 44.976H121.88V42.976H116.984V44.976ZM120.926 44.2748L125.214 57.9708L127.123 57.3732L122.835 43.6772L120.926 44.2748ZM127.125 57.9647L131.317 44.2687L129.404 43.6833L125.212 57.3793L127.125 57.9647ZM130.36 44.976H135.128V42.976H130.36V44.976ZM151.955 53.64V54.64H152.85L152.949 53.7504L151.955 53.64ZM139.859 53.64V52.64H138.775L138.862 53.7201L139.859 53.64ZM147.347 55.464V54.464H146.492L146.359 55.308L147.347 55.464ZM151.763 55.464L152.74 55.6768L153.004 54.464H151.763V55.464ZM139.987 50.76L138.996 50.6249L138.841 51.76H139.987V50.76ZM147.475 50.76V51.76H148.588L148.469 50.6535L147.475 50.76ZM151.019 52.136C151.019 52.5533 151.018 53.0149 150.961 53.5296L152.949 53.7504C153.02 53.1131 153.019 52.5507 153.019 52.136H151.019ZM151.955 52.64H139.859V54.64H151.955V52.64ZM138.862 53.7201C139.016 55.6321 139.531 57.0666 140.442 58.025C141.376 59.007 142.584 59.344 143.795 59.344V57.344C142.958 57.344 142.342 57.121 141.892 56.647C141.419 56.1494 140.99 55.2319 140.856 53.5599L138.862 53.7201ZM143.795 59.344C144.925 59.344 145.972 59.0263 146.795 58.3694C147.624 57.7073 148.155 56.7548 148.335 55.62L146.359 55.308C146.25 55.9972 145.95 56.4847 145.547 56.8066C145.137 57.1337 144.553 57.344 143.795 57.344V59.344ZM147.347 56.464H151.763V54.464H147.347V56.464ZM150.786 55.2512C150.404 57.0044 149.522 58.2802 148.328 59.1287C147.121 59.9856 145.535 60.448 143.699 60.448V62.448C145.863 62.448 147.876 61.9024 149.486 60.7593C151.107 59.6078 152.258 57.8916 152.74 55.6768L150.786 55.2512ZM143.699 60.448C141.569 60.448 139.771 59.7874 138.507 58.534C137.248 57.2851 136.411 55.3389 136.411 52.552H134.411C134.411 55.7491 135.382 58.2509 137.099 59.954C138.811 61.6526 141.156 62.448 143.699 62.448V60.448ZM136.411 52.552C136.411 50.1636 137.192 48.1635 138.503 46.769C139.809 45.3806 141.698 44.528 144.051 44.528V42.528C141.188 42.528 138.757 43.5794 137.046 45.399C135.341 47.2125 134.411 49.7244 134.411 52.552H136.411ZM144.051 44.528C146.382 44.528 148.09 45.4038 149.23 46.7407C150.387 48.0977 151.019 50.0049 151.019 52.136H153.019C153.019 49.6271 152.275 47.2303 150.752 45.4433C149.212 43.6362 146.935 42.528 144.051 42.528V44.528ZM143.859 45.632C142.606 45.632 141.462 46.0412 140.583 46.9414C139.723 47.8229 139.206 49.0823 138.996 50.6249L140.978 50.8951C141.151 49.6217 141.547 48.8171 142.014 48.3386C142.463 47.8788 143.063 47.632 143.859 47.632V45.632ZM139.987 51.76H147.475V49.76H139.987V51.76ZM148.469 50.6535C148.313 49.1982 147.894 47.9403 147.106 47.0326C146.289 46.0905 145.167 45.632 143.859 45.632V47.632C144.663 47.632 145.205 47.8935 145.596 48.3434C146.016 48.8277 146.348 49.6338 146.481 50.8665L148.469 50.6535ZM167.895 48.904V49.904H169.026L168.887 48.7812L167.895 48.904ZM163.479 48.904L162.495 49.0847L162.646 49.904H163.479V48.904ZM162.711 50.92L162.96 49.9514L162.953 49.9499L162.711 50.92ZM153.719 55.816V54.816H152.586L152.727 55.94L153.719 55.816ZM158.135 55.816L159.117 55.6297L158.963 54.816H158.135V55.816ZM159.735 53.896L159.49 54.8656L159.492 54.8661L159.735 53.896ZM161.143 44.528C162.987 44.528 164.336 45.0407 165.254 45.816C166.17 46.5899 166.737 47.6926 166.902 49.0268L168.887 48.7812C168.668 47.0114 167.892 45.4261 166.544 44.288C165.198 43.1513 163.363 42.528 161.143 42.528V44.528ZM167.895 47.904H163.479V49.904H167.895V47.904ZM164.462 48.7233C164.294 47.8075 163.938 46.9735 163.305 46.3638C162.654 45.7372 161.808 45.44 160.855 45.44V47.44C161.374 47.44 161.696 47.5908 161.917 47.8042C162.156 48.0345 162.376 48.4325 162.495 49.0847L164.462 48.7233ZM160.855 45.44C160.004 45.44 159.231 45.6923 158.665 46.2321C158.096 46.7746 157.839 47.5089 157.839 48.264H159.839C159.839 47.9631 159.934 47.7854 160.045 47.6799C160.158 47.5717 160.394 47.44 160.855 47.44V45.44ZM157.839 48.264C157.839 48.7283 157.937 49.1845 158.176 49.6106C158.413 50.0313 158.756 50.3644 159.159 50.6367C159.933 51.1591 161.052 51.5361 162.468 51.8901L162.953 49.9499C161.554 49.5999 160.737 49.2889 160.279 48.9793C160.066 48.8356 159.968 48.7167 159.919 48.6294C159.873 48.5475 159.839 48.4397 159.839 48.264H157.839ZM162.462 51.8886C164.156 52.3237 165.35 52.85 166.117 53.5422C166.833 54.1889 167.247 55.0442 167.247 56.36H169.247C169.247 54.5398 168.637 53.1231 167.457 52.0578C166.328 51.038 164.754 50.4123 162.96 49.9514L162.462 51.8886ZM167.247 56.36C167.247 57.7178 166.655 58.6864 165.652 59.3564C164.605 60.0551 163.068 60.448 161.239 60.448V62.448C163.313 62.448 165.281 62.0089 166.762 61.0196C168.287 60.0016 169.247 58.4262 169.247 56.36H167.247ZM161.239 60.448C159.307 60.448 157.772 60.0271 156.691 59.2573C155.637 58.5071 154.92 57.3618 154.711 55.692L152.727 55.94C152.998 58.1102 153.977 59.7809 155.531 60.8867C157.057 61.9729 159.043 62.448 161.239 62.448V60.448ZM153.719 56.816H158.135V54.816H153.719V56.816ZM157.152 56.0023C157.366 57.1274 157.88 58.032 158.647 58.6507C159.41 59.2653 160.347 59.536 161.303 59.536V57.536C160.723 57.536 160.251 57.3747 159.902 57.0933C159.558 56.816 159.256 56.3606 159.117 55.6297L157.152 56.0023ZM161.303 59.536C162.131 59.536 162.976 59.36 163.645 58.9C164.358 58.4104 164.799 57.6418 164.799 56.68H162.799C162.799 56.9662 162.696 57.1256 162.512 57.252C162.285 57.408 161.882 57.536 161.303 57.536V59.536ZM164.799 56.68C164.799 56.202 164.695 55.735 164.447 55.2999C164.202 54.8712 163.85 54.5279 163.433 54.2447C162.628 53.6985 161.463 53.2972 159.977 52.9259L159.492 54.8661C160.951 55.2308 161.818 55.5655 162.309 55.8993C162.54 56.0561 162.651 56.1888 162.709 56.2901C162.763 56.385 162.799 56.502 162.799 56.68H164.799ZM159.98 52.9264C158.452 52.5406 157.294 52.0444 156.529 51.3832C155.81 50.7622 155.391 49.959 155.391 48.776H153.391C153.391 50.537 154.06 51.8938 155.221 52.8968C156.336 53.8596 157.85 54.4514 159.49 54.8656L159.98 52.9264ZM155.391 48.776C155.391 47.4498 155.922 46.4333 156.851 45.7218C157.808 44.9887 159.261 44.528 161.143 44.528V42.528C158.961 42.528 157.038 43.0593 155.635 44.1342C154.203 45.2307 153.391 46.8382 153.391 48.776H155.391Z" fill="black" fill-opacity="0.2" mask="url(#path-2-inside-1_941_757)"/>
<path d="M51.8629 54.344L52.8134 54.0333L52.588 53.344H51.8629V54.344ZM44.4389 54.344V53.344H43.717L43.4897 54.0291L44.4389 54.344ZM42.2309 61V62H42.9527L43.18 61.3149L42.2309 61ZM37.5269 61L36.5862 60.6606L36.1029 62H37.5269V61ZM45.4949 38.92V37.92H44.7926L44.5542 38.5806L45.4949 38.92ZM51.0309 38.92L51.9737 38.5866L51.7379 37.92H51.0309V38.92ZM58.8389 61V62H60.2532L59.7817 60.6666L58.8389 61ZM54.0389 61L53.0884 61.3107L53.3137 62H54.0389V61ZM48.1829 42.696L49.137 42.3967L48.1946 39.3928L47.2309 42.3899L48.1829 42.696ZM45.5589 50.856L44.6069 50.5499L44.1869 51.856H45.5589V50.856ZM50.7429 50.856V51.856H52.1047L51.697 50.5567L50.7429 50.856ZM51.8629 53.344H44.4389V55.344H51.8629V53.344ZM43.4897 54.0291L41.2817 60.6851L43.18 61.3149L45.388 54.6589L43.4897 54.0291ZM42.2309 60H37.5269V62H42.2309V60ZM38.4675 61.3394L46.4355 39.2594L44.5542 38.5806L36.5862 60.6606L38.4675 61.3394ZM45.4949 39.92H51.0309V37.92H45.4949V39.92ZM50.0881 39.2534L57.8961 61.3334L59.7817 60.6666L51.9737 38.5866L50.0881 39.2534ZM58.8389 60H54.0389V62H58.8389V60ZM54.9894 60.6893L52.8134 54.0333L50.9124 54.6547L53.0884 61.3107L54.9894 60.6893ZM47.2309 42.3899L44.6069 50.5499L46.5109 51.1621L49.1349 43.0021L47.2309 42.3899ZM45.5589 51.856H50.7429V49.856H45.5589V51.856ZM51.697 50.5567L49.137 42.3967L47.2287 42.9953L49.7887 51.1553L51.697 50.5567ZM70.6079 43.688H71.6079V42.9072L70.8504 42.7179L70.6079 43.688ZM70.6079 47.24L70.5385 48.2376L71.6079 48.312V47.24H70.6079ZM65.1039 61V62H66.1039V61H65.1039ZM60.6879 61H59.6879V62H60.6879V61ZM60.6879 43.976V42.976H59.6879V43.976H60.6879ZM65.1039 43.976H66.1039V42.976H65.1039V43.976ZM65.1039 47.08H64.1039V50.8678L65.9736 47.5736L65.1039 47.08ZM66.4479 44.712L65.7696 43.9772L65.6551 44.0829L65.5782 44.2184L66.4479 44.712ZM69.3599 44.56C69.8236 44.56 70.0876 44.5887 70.3653 44.6581L70.8504 42.7179C70.3601 42.5953 69.9201 42.56 69.3599 42.56V44.56ZM69.6079 43.688V47.24H71.6079V43.688H69.6079ZM70.6773 46.2424C68.7036 46.1051 66.9685 46.455 65.7567 47.7091C64.5706 48.9367 64.1039 50.8122 64.1039 53.192H66.1039C66.1039 50.9958 66.5491 49.7673 67.195 49.0989C67.8152 48.457 68.8321 48.1189 70.5385 48.2376L70.6773 46.2424ZM64.1039 53.192V61H66.1039V53.192H64.1039ZM65.1039 60H60.6879V62H65.1039V60ZM61.6879 61V43.976H59.6879V61H61.6879ZM60.6879 44.976H65.1039V42.976H60.6879V44.976ZM64.1039 43.976V47.08H66.1039V43.976H64.1039ZM65.9736 47.5736L67.3176 45.2056L65.5782 44.2184L64.2342 46.5864L65.9736 47.5736ZM67.1262 45.4468C67.7644 44.8577 68.6386 44.56 69.3599 44.56V42.56C68.1611 42.56 66.7954 43.0303 65.7696 43.9772L67.1262 45.4468ZM87.8239 50.12V51.12H88.9122L88.8203 50.0356L87.8239 50.12ZM83.4719 50.12L82.4858 50.2865L82.6266 51.12H83.4719V50.12ZM83.3759 55.112V54.112H82.5632L82.397 54.9075L83.3759 55.112ZM87.7919 55.112L88.7768 55.2849L88.9827 54.112H87.7919V55.112ZM80.0479 44.528C82.144 44.528 83.7613 45.1652 84.8809 46.1567C86.0004 47.148 86.6873 48.5501 86.8274 50.2044L88.8203 50.0356C88.6405 47.9139 87.7433 46.02 86.2068 44.6593C84.6704 43.2988 82.5597 42.528 80.0479 42.528V44.528ZM87.8239 49.12H83.4719V51.12H87.8239V49.12ZM84.4579 49.9535C84.2273 48.5875 83.7349 47.4849 82.9248 46.7234C82.1001 45.9482 81.0589 45.632 79.9519 45.632V47.632C80.6688 47.632 81.1796 47.8278 81.555 48.1806C81.9448 48.5471 82.3004 49.1885 82.4858 50.2865L84.4579 49.9535ZM79.9519 45.632C78.5267 45.632 77.2587 46.2295 76.3817 47.4419C75.5335 48.6143 75.1119 50.2735 75.1119 52.328H77.1119C77.1119 50.5105 77.4902 49.3217 78.0021 48.6141C78.4851 47.9465 79.1371 47.632 79.9519 47.632V45.632ZM75.1119 52.328C75.1119 54.5428 75.5275 56.279 76.3658 57.4894C77.2391 58.7502 78.5067 59.344 79.9199 59.344V57.344C79.1251 57.344 78.4887 57.0418 78.0099 56.3506C77.4963 55.609 77.1119 54.3372 77.1119 52.328H75.1119ZM79.9199 59.344C81.0058 59.344 82.0063 58.9964 82.8018 58.2708C83.5868 57.5548 84.0995 56.5379 84.3547 55.3165L82.397 54.9075C82.2042 55.8301 81.853 56.4292 81.454 56.7932C81.0655 57.1476 80.5619 57.344 79.9199 57.344V59.344ZM83.3759 56.112H87.7919V54.112H83.3759V56.112ZM86.8069 54.9391C86.478 56.8126 85.6308 58.1615 84.4464 59.0531C83.25 59.9538 81.6282 60.448 79.6639 60.448V62.448C81.9556 62.448 84.0297 61.8702 85.6493 60.6509C87.281 59.4225 88.3697 57.6034 88.7768 55.2849L86.8069 54.9391ZM79.6639 60.448C77.5561 60.448 75.8003 59.7831 74.5718 58.5377C73.3448 57.2938 72.5359 55.3609 72.5359 52.616H70.5359C70.5359 55.7591 71.471 58.2422 73.1479 59.9423C74.8235 61.6409 77.1317 62.448 79.6639 62.448V60.448ZM72.5359 52.616C72.5359 49.9316 73.4155 47.9266 74.747 46.5951C76.083 45.2591 77.9467 44.528 80.0479 44.528V42.528C77.477 42.528 75.0847 43.4289 73.3328 45.1809C71.5762 46.9374 70.5359 49.4764 70.5359 52.616H72.5359ZM106.497 48.296L107.491 48.1856L107.49 48.1785L106.497 48.296ZM106.625 61V62H107.625V61H106.625ZM102.209 61H101.209V62H102.209V61ZM102.145 49.64L101.148 49.7112L101.148 49.7139L102.145 49.64ZM98.8814 46.632V45.632H98.8739L98.8665 45.6321L98.8814 46.632ZM95.0414 61V62H96.0414V61H95.0414ZM90.6254 61H89.6254V62H90.6254V61ZM90.6254 37.32V36.32H89.6254V37.32H90.6254ZM95.0414 37.32H96.0414V36.32H95.0414V37.32ZM95.0414 46.728H94.0414V50.0979L95.8795 47.2735L95.0414 46.728ZM96.3534 44.712L95.7742 43.8968L95.619 44.007L95.5152 44.1665L96.3534 44.712ZM105.503 48.4064C105.594 49.2165 105.625 50.0381 105.625 51.4H107.625C107.625 50.0099 107.593 49.1035 107.491 48.1856L105.503 48.4064ZM105.625 51.4V61H107.625V51.4H105.625ZM106.625 60H102.209V62H106.625V60ZM103.209 61V52.008H101.209V61H103.209ZM103.209 52.008C103.209 51.3068 103.21 50.472 103.143 49.5661L101.148 49.7139C101.209 50.536 101.209 51.3012 101.209 52.008H103.209ZM103.143 49.5688C103.067 48.514 102.728 47.5031 101.974 46.7542C101.209 45.9954 100.146 45.632 98.8814 45.632V47.632C99.7609 47.632 100.266 47.8766 100.565 48.1738C100.874 48.4809 101.095 48.974 101.148 49.7112L103.143 49.5688ZM98.8665 45.6321C97.4714 45.6529 96.2004 46.2789 95.3219 47.6144C94.4783 48.8969 94.0414 50.7609 94.0414 53.224H96.0414C96.0414 50.9511 96.4525 49.5351 96.9928 48.7136C97.4983 47.9451 98.1473 47.6431 98.8963 47.6319L98.8665 45.6321ZM94.0414 53.224V61H96.0414V53.224H94.0414ZM95.0414 60H90.6254V62H95.0414V60ZM91.6254 61V37.32H89.6254V61H91.6254ZM90.6254 38.32H95.0414V36.32H90.6254V38.32ZM94.0414 37.32V46.728H96.0414V37.32H94.0414ZM95.8795 47.2735L97.1915 45.2575L95.5152 44.1665L94.2032 46.1825L95.8795 47.2735ZM96.9326 45.5272C97.9421 44.8099 98.974 44.528 100.449 44.528V42.528C98.6607 42.528 97.1966 42.8861 95.7742 43.8968L96.9326 45.5272ZM100.449 44.528C102.098 44.528 103.278 44.9357 104.069 45.5742C104.849 46.2035 105.354 47.1396 105.504 48.4135L107.49 48.1785C107.289 46.4764 106.578 45.0285 105.325 44.0178C104.085 43.0163 102.417 42.528 100.449 42.528V44.528ZM114.916 61V62H115.916V61H114.916ZM110.5 61H109.5V62H110.5V61ZM110.5 43.976V42.976H109.5V43.976H110.5ZM114.916 43.976H115.916V42.976H114.916V43.976ZM112.708 38.64C113.203 38.64 113.552 38.8015 113.771 39.0124C113.987 39.2208 114.14 39.5372 114.14 39.976H116.14C116.14 39.0388 115.797 38.1872 115.158 37.5716C114.521 36.9585 113.654 36.64 112.708 36.64V38.64ZM114.14 39.976C114.14 40.4356 113.984 40.7481 113.774 40.9482C113.56 41.1527 113.212 41.312 112.708 41.312V43.312C113.645 43.312 114.513 43.0073 115.154 42.3958C115.8 41.7799 116.14 40.9244 116.14 39.976H114.14ZM112.708 41.312C112.205 41.312 111.857 41.1527 111.642 40.9482C111.432 40.7481 111.276 40.4356 111.276 39.976H109.276C109.276 40.9244 109.616 41.7799 110.262 42.3958C110.904 43.0073 111.772 43.312 112.708 43.312V41.312ZM111.276 39.976C111.276 39.5372 111.429 39.2208 111.646 39.0124C111.865 38.8015 112.214 38.64 112.708 38.64V36.64C111.763 36.64 110.896 36.9585 110.259 37.5716C109.619 38.1872 109.276 39.0388 109.276 39.976H111.276ZM114.916 60H110.5V62H114.916V60ZM111.5 61V43.976H109.5V61H111.5ZM110.5 44.976H114.916V42.976H110.5V44.976ZM113.916 43.976V61H115.916V43.976H113.916ZM135.128 43.976L136.061 44.3371L136.588 42.976H135.128V43.976ZM128.536 61V62H129.222L129.469 61.3611L128.536 61ZM123.608 61L122.676 61.3626L122.924 62H123.608V61ZM116.984 43.976V42.976H115.522L116.052 44.3386L116.984 43.976ZM121.88 43.976L122.835 43.6772L122.615 42.976H121.88V43.976ZM126.168 57.672L125.214 57.9708L126.179 61.0535L127.125 57.9647L126.168 57.672ZM130.36 43.976V42.976H129.621L129.404 43.6833L130.36 43.976ZM134.196 43.6149L127.604 60.6389L129.469 61.3611L136.061 44.3371L134.196 43.6149ZM128.536 60H123.608V62H128.536V60ZM124.54 60.6374L117.916 43.6134L116.052 44.3386L122.676 61.3626L124.54 60.6374ZM116.984 44.976H121.88V42.976H116.984V44.976ZM120.926 44.2748L125.214 57.9708L127.123 57.3732L122.835 43.6772L120.926 44.2748ZM127.125 57.9647L131.317 44.2687L129.404 43.6833L125.212 57.3793L127.125 57.9647ZM130.36 44.976H135.128V42.976H130.36V44.976ZM151.955 53.64V54.64H152.85L152.949 53.7504L151.955 53.64ZM139.859 53.64V52.64H138.775L138.862 53.7201L139.859 53.64ZM147.347 55.464V54.464H146.492L146.359 55.308L147.347 55.464ZM151.763 55.464L152.74 55.6768L153.004 54.464H151.763V55.464ZM139.987 50.76L138.996 50.6249L138.841 51.76H139.987V50.76ZM147.475 50.76V51.76H148.588L148.469 50.6535L147.475 50.76ZM151.019 52.136C151.019 52.5533 151.018 53.0149 150.961 53.5296L152.949 53.7504C153.02 53.1131 153.019 52.5507 153.019 52.136H151.019ZM151.955 52.64H139.859V54.64H151.955V52.64ZM138.862 53.7201C139.016 55.6321 139.531 57.0666 140.442 58.025C141.376 59.007 142.584 59.344 143.795 59.344V57.344C142.958 57.344 142.342 57.121 141.892 56.647C141.419 56.1494 140.99 55.2319 140.856 53.5599L138.862 53.7201ZM143.795 59.344C144.925 59.344 145.972 59.0263 146.795 58.3694C147.624 57.7073 148.155 56.7548 148.335 55.62L146.359 55.308C146.25 55.9972 145.95 56.4847 145.547 56.8066C145.137 57.1337 144.553 57.344 143.795 57.344V59.344ZM147.347 56.464H151.763V54.464H147.347V56.464ZM150.786 55.2512C150.404 57.0044 149.522 58.2802 148.328 59.1287C147.121 59.9856 145.535 60.448 143.699 60.448V62.448C145.863 62.448 147.876 61.9024 149.486 60.7593C151.107 59.6078 152.258 57.8916 152.74 55.6768L150.786 55.2512ZM143.699 60.448C141.569 60.448 139.771 59.7874 138.507 58.534C137.248 57.2851 136.411 55.3389 136.411 52.552H134.411C134.411 55.7491 135.382 58.2509 137.099 59.954C138.811 61.6526 141.156 62.448 143.699 62.448V60.448ZM136.411 52.552C136.411 50.1636 137.192 48.1635 138.503 46.769C139.809 45.3806 141.698 44.528 144.051 44.528V42.528C141.188 42.528 138.757 43.5794 137.046 45.399C135.341 47.2125 134.411 49.7244 134.411 52.552H136.411ZM144.051 44.528C146.382 44.528 148.09 45.4038 149.23 46.7407C150.387 48.0977 151.019 50.0049 151.019 52.136H153.019C153.019 49.6271 152.275 47.2303 150.752 45.4433C149.212 43.6362 146.935 42.528 144.051 42.528V44.528ZM143.859 45.632C142.606 45.632 141.462 46.0412 140.583 46.9414C139.723 47.8229 139.206 49.0823 138.996 50.6249L140.978 50.8951C141.151 49.6217 141.547 48.8171 142.014 48.3386C142.463 47.8788 143.063 47.632 143.859 47.632V45.632ZM139.987 51.76H147.475V49.76H139.987V51.76ZM148.469 50.6535C148.313 49.1982 147.894 47.9403 147.106 47.0326C146.289 46.0905 145.167 45.632 143.859 45.632V47.632C144.663 47.632 145.205 47.8935 145.596 48.3434C146.016 48.8277 146.348 49.6338 146.481 50.8665L148.469 50.6535ZM167.895 48.904V49.904H169.026L168.887 48.7812L167.895 48.904ZM163.479 48.904L162.495 49.0847L162.646 49.904H163.479V48.904ZM162.711 50.92L162.96 49.9514L162.953 49.9499L162.711 50.92ZM153.719 55.816V54.816H152.586L152.727 55.94L153.719 55.816ZM158.135 55.816L159.117 55.6297L158.963 54.816H158.135V55.816ZM159.735 53.896L159.49 54.8656L159.492 54.8661L159.735 53.896ZM161.143 44.528C162.987 44.528 164.336 45.0407 165.254 45.816C166.17 46.5899 166.737 47.6926 166.902 49.0268L168.887 48.7812C168.668 47.0114 167.892 45.4261 166.544 44.288C165.198 43.1513 163.363 42.528 161.143 42.528V44.528ZM167.895 47.904H163.479V49.904H167.895V47.904ZM164.462 48.7233C164.294 47.8075 163.938 46.9735 163.305 46.3638C162.654 45.7372 161.808 45.44 160.855 45.44V47.44C161.374 47.44 161.696 47.5908 161.917 47.8042C162.156 48.0345 162.376 48.4325 162.495 49.0847L164.462 48.7233ZM160.855 45.44C160.004 45.44 159.231 45.6923 158.665 46.2321C158.096 46.7746 157.839 47.5089 157.839 48.264H159.839C159.839 47.9631 159.934 47.7854 160.045 47.6799C160.158 47.5717 160.394 47.44 160.855 47.44V45.44ZM157.839 48.264C157.839 48.7283 157.937 49.1845 158.176 49.6106C158.413 50.0313 158.756 50.3644 159.159 50.6367C159.933 51.1591 161.052 51.5361 162.468 51.8901L162.953 49.9499C161.554 49.5999 160.737 49.2889 160.279 48.9793C160.066 48.8356 159.968 48.7167 159.919 48.6294C159.873 48.5475 159.839 48.4397 159.839 48.264H157.839ZM162.462 51.8886C164.156 52.3237 165.35 52.85 166.117 53.5422C166.833 54.1889 167.247 55.0442 167.247 56.36H169.247C169.247 54.5398 168.637 53.1231 167.457 52.0578C166.328 51.038 164.754 50.4123 162.96 49.9514L162.462 51.8886ZM167.247 56.36C167.247 57.7178 166.655 58.6864 165.652 59.3564C164.605 60.0551 163.068 60.448 161.239 60.448V62.448C163.313 62.448 165.281 62.0089 166.762 61.0196C168.287 60.0016 169.247 58.4262 169.247 56.36H167.247ZM161.239 60.448C159.307 60.448 157.772 60.0271 156.691 59.2573C155.637 58.5071 154.92 57.3618 154.711 55.692L152.727 55.94C152.998 58.1102 153.977 59.7809 155.531 60.8867C157.057 61.9729 159.043 62.448 161.239 62.448V60.448ZM153.719 56.816H158.135V54.816H153.719V56.816ZM157.152 56.0023C157.366 57.1274 157.88 58.032 158.647 58.6507C159.41 59.2653 160.347 59.536 161.303 59.536V57.536C160.723 57.536 160.251 57.3747 159.902 57.0933C159.558 56.816 159.256 56.3606 159.117 55.6297L157.152 56.0023ZM161.303 59.536C162.131 59.536 162.976 59.36 163.645 58.9C164.358 58.4104 164.799 57.6418 164.799 56.68H162.799C162.799 56.9662 162.696 57.1256 162.512 57.252C162.285 57.408 161.882 57.536 161.303 57.536V59.536ZM164.799 56.68C164.799 56.202 164.695 55.735 164.447 55.2999C164.202 54.8712 163.85 54.5279 163.433 54.2447C162.628 53.6985 161.463 53.2972 159.977 52.9259L159.492 54.8661C160.951 55.2308 161.818 55.5655 162.309 55.8993C162.54 56.0561 162.651 56.1888 162.709 56.2901C162.763 56.385 162.799 56.502 162.799 56.68H164.799ZM159.98 52.9264C158.452 52.5406 157.294 52.0444 156.529 51.3832C155.81 50.7622 155.391 49.959 155.391 48.776H153.391C153.391 50.537 154.06 51.8938 155.221 52.8968C156.336 53.8596 157.85 54.4514 159.49 54.8656L159.98 52.9264ZM155.391 48.776C155.391 47.4498 155.922 46.4333 156.851 45.7218C157.808 44.9887 159.261 44.528 161.143 44.528V42.528C158.961 42.528 157.038 43.0593 155.635 44.1342C154.203 45.2307 153.391 46.8382 153.391 48.776H155.391Z" fill="black" fill-opacity="0.2" mask="url(#path-2-inside-1_941_757)"/>
<path d="M102.5 232.5V94.5H104.5V232.5H102.5Z" fill="black" stroke="black"/>
</svg>
