<?xml version="1.0" encoding="UTF-8" standalone="no"?>
<!-- Created with Inkscape (http://www.inkscape.org/) -->

<svg
   width="210.00002mm"
   height="296.99997mm"
   viewBox="0 0 210.00002 296.99996"
   version="1.1"
   id="svg1"
   xml:space="preserve"
   xmlns:inkscape="http://www.inkscape.org/namespaces/inkscape"
   xmlns:sodipodi="http://sodipodi.sourceforge.net/DTD/sodipodi-0.dtd"
   xmlns="http://www.w3.org/2000/svg"
   xmlns:svg="http://www.w3.org/2000/svg"><sodipodi:namedview
     id="namedview1"
     pagecolor="#ffffff"
     bordercolor="#000000"
     borderopacity="0.25"
     inkscape:showpageshadow="2"
     inkscape:pageopacity="0.0"
     inkscape:pagecheckerboard="0"
     inkscape:deskcolor="#d1d1d1"
     inkscape:document-units="mm"><inkscape:page
       x="0"
       y="0"
       width="210.00002"
       height="296.99997"
       id="page2"
       margin="0"
       bleed="0" /></sodipodi:namedview><defs
     id="defs1" /><g
     inkscape:label="Layer 1"
     inkscape:groupmode="layer"
     id="layer1"
     transform="translate(-20.54717,-33.996227)"><g
       style="fill:none"
       id="g1"
       transform="matrix(4.0390477,0,0,4.0390477,24.237079,1.9309087)"><path
         d="m 12.3028,8.62109 c -0.1093,0 -0.2065,0 -0.2065,0.10928 L 9.9224,10.9038 c -0.10931,0.1093 -0.10931,0.3157 0,0.4128 L 20.9015,22.293 31.8805,11.3166 c 0.1093,-0.1093 0.1093,-0.3157 0,-0.4128 L 29.7066,8.73037 c -0.1093,-0.10928 -0.3158,-0.10928 -0.5223,0 l -8.295,8.29303 -8.295,-8.29303 C 12.485,8.62109 12.3878,8.62109 12.2785,8.62109 Z M 8.465,12.3487 c -0.1093,0 -0.20646,0 -0.20646,0.1093 l -2.17395,2.1734 c -0.10931,0.1093 -0.10931,0.3157 0,0.5221 l 8.29501,8.293 -14.3067767,14.2912 c -0.1093048,0.1093 -0.1093048,0.3157 0,0.5221 L 2.24677,40.4332 c 0.10931,0.1093 0.31577,0.1093 0.41293,0 L 19.6505,23.4465 16.9543,20.751 8.65932,12.458 c 0,0 -0.1093,0 -0.20646,-0.1093 z m 24.7636,0 c -0.1093,0 -0.2065,0 -0.2065,0.1093 l -8.295,8.293 -2.6962,2.6955 16.9909,16.9867 c 0.1093,0.1093 0.3157,0.1093 0.4129,0 l 2.1739,-2.1734 c 0.1093,-0.1093 0.1093,-0.3157 0,-0.5221 L 27.314,23.4465 l 8.295,-8.293 c 0.1093,-0.1093 0.1093,-0.3157 0,-0.5221 L 33.4351,12.458 c 0,0 -0.1093,-0.1093 -0.2065,-0.1093 z M 20.9015,24.6729 18.2053,27.3684 3.91064,41.6596 c -0.10931,0.1093 -0.10931,0.3157 0,0.5221 l 2.17395,2.1734 c 0.1093,0.1093 0.31577,0.1093 0.52223,0 L 20.9015,30.0639 35.1961,44.3551 c 0.1093,0.1093 0.3158,0.1093 0.5222,0 l 2.174,-2.1734 c 0.1093,-0.1093 0.1093,-0.3157 0,-0.5221 L 23.5976,27.3684 Z"
         fill="#e9190f"
         id="path1" /></g></g></svg>
