<svg width="484" height="238" viewBox="0 0 484 238" fill="none" xmlns="http://www.w3.org/2000/svg">
<g clip-path="url(#clip0_459_1050)">
<path d="M55.2177 38.7124C54.7271 38.7124 54.291 38.7124 54.291 39.2031L44.5339 48.963C44.0433 49.4538 44.0433 50.3807 44.5339 50.8169L93.81 100.107L143.086 50.8169C143.577 50.3261 143.577 49.3992 143.086 48.963L133.329 39.2031C132.838 38.7124 131.912 38.7124 130.985 39.2031L93.7555 76.4434L56.5259 39.2031C56.0353 38.7124 55.5992 38.7124 55.1086 38.7124H55.2177ZM37.9928 55.4515C37.5023 55.4515 37.0662 55.4515 37.0662 55.9422L27.3091 65.7021C26.8185 66.1928 26.8185 67.1197 27.3091 68.0466L64.5387 105.287L0.327164 169.462C-0.163417 169.953 -0.163417 170.88 0.327164 171.807L10.0843 181.567C10.5748 182.058 11.5015 182.058 11.9376 181.567L88.1956 105.287L76.0946 93.1825L38.865 55.9422C38.865 55.9422 38.3744 55.9422 37.9383 55.4515H37.9928ZM149.137 55.4515C148.646 55.4515 148.21 55.4515 148.21 55.9422L110.98 93.1825L98.8793 105.287L175.137 181.567C175.628 182.058 176.555 182.058 176.991 181.567L186.748 171.807C187.238 171.316 187.238 170.389 186.748 169.462L122.591 105.287L159.82 68.0466C160.311 67.5559 160.311 66.629 159.82 65.7021L150.063 55.9422C150.063 55.9422 149.573 55.4515 149.137 55.4515ZM93.81 110.794L81.709 122.898L17.552 187.074C17.0614 187.565 17.0614 188.492 17.552 189.418L27.3091 199.178C27.7997 199.669 28.7263 199.669 29.653 199.178L93.81 135.003L157.967 199.178C158.458 199.669 159.384 199.669 160.311 199.178L170.068 189.418C170.559 188.928 170.559 188.001 170.068 187.074L105.911 122.898L93.81 110.794Z" fill="black"/>
<path d="M277.118 66.7183H265.886V94.6543H259.262V66.7183H248.03V61.5343H277.118V66.7183ZM303.195 75.5983C303.339 76.8943 303.387 78.1903 303.387 80.2543V94.6543H296.763V81.1663C296.763 80.1103 296.763 78.9103 296.667 77.6143C296.475 74.9263 294.987 73.1023 291.771 73.1023C288.555 73.1503 286.011 75.8863 286.011 82.9903V94.6543H279.387V59.1343H286.011V73.2463L287.979 70.2223C289.803 68.9263 291.675 68.4463 294.123 68.4463C299.547 68.4463 302.667 71.1343 303.195 75.5983ZM332.384 81.3583C332.384 81.9823 332.384 82.7503 332.288 83.6143H314.144C314.576 88.9903 316.976 90.6703 320.048 90.6703C322.88 90.6703 324.944 89.0863 325.376 86.3503H332C330.704 92.3023 325.904 95.3263 319.904 95.3263C312.896 95.3263 307.472 90.9583 307.472 81.9823C307.472 74.1583 312.608 68.4463 320.432 68.4463C328.256 68.4463 332.384 74.3983 332.384 81.3583ZM320.144 73.1023C317.072 73.1023 314.912 75.0703 314.336 79.2943H325.568C325.136 75.2623 323.312 73.1023 320.144 73.1023ZM365.478 84.6703H354.342L351.03 94.6543H343.974L355.926 61.5343H364.23L375.942 94.6543H368.742L365.478 84.6703ZM359.958 67.1983L356.022 79.4383H363.798L359.958 67.1983ZM416.635 74.7823C416.827 76.0783 416.875 77.3743 416.875 79.4383V94.6543H410.251V81.3583C410.251 79.8703 410.203 78.4783 410.059 77.1823C409.723 74.5423 408.283 73.1023 405.739 73.1023C402.763 73.1023 401.083 75.6463 401.083 81.5503V94.6543H394.507V81.3583C394.507 79.8703 394.459 78.4783 394.315 77.1823C393.979 74.5423 392.491 73.1023 389.947 73.1023C386.971 73.1023 385.339 75.6463 385.339 81.5503V94.6543H378.715V69.1183H385.339V73.0063L387.211 69.9343C388.651 68.9263 390.331 68.4463 392.635 68.4463C396.811 68.4463 399.451 70.5103 400.459 73.2943L402.955 69.9343C404.395 68.9263 406.123 68.4463 408.427 68.4463C413.275 68.4463 416.059 71.2783 416.635 74.7823ZM445.868 81.3583C445.868 81.9823 445.868 82.7503 445.772 83.6143H427.628C428.06 88.9903 430.46 90.6703 433.532 90.6703C436.364 90.6703 438.428 89.0863 438.86 86.3503H445.484C444.188 92.3023 439.388 95.3263 433.388 95.3263C426.38 95.3263 420.956 90.9583 420.956 81.9823C420.956 74.1583 426.092 68.4463 433.916 68.4463C441.74 68.4463 445.868 74.3983 445.868 81.3583ZM433.628 73.1023C430.556 73.1023 428.396 75.0703 427.82 79.2943H439.052C438.62 75.2623 436.796 73.1023 433.628 73.1023ZM465.266 94.6543L464.786 90.9103L463.538 93.6463C461.762 94.8463 459.602 95.3263 457.202 95.3263C452.786 95.3263 448.994 92.7343 448.994 87.8863C448.994 82.2703 453.794 79.1023 463.058 79.1023H464.69V78.5743C464.69 77.8063 464.69 77.0383 464.594 76.1743C464.402 74.3983 463.25 73.1023 460.658 73.1023C458.018 73.1023 456.578 74.6383 456.386 77.4223L449.954 77.4703C450.146 71.7103 454.802 68.4463 460.898 68.4463C468.05 68.4463 470.738 71.5663 471.122 75.9823C471.218 77.1823 471.266 78.5263 471.266 79.9183V88.1743C471.266 90.0943 471.362 91.8223 471.746 94.6543H465.266ZM459.746 90.6703C462.434 90.6703 464.69 88.7983 464.69 85.2463V83.1823C459.41 82.7983 455.858 83.9983 455.858 87.3583C455.858 89.6143 457.394 90.6703 459.746 90.6703Z" fill="black"/>
<path d="M269.15 143.666H258.014L254.702 153.65H247.646L259.598 120.53H267.902L279.614 153.65H272.414L269.15 143.666ZM263.63 126.194L259.694 138.434H267.47L263.63 126.194ZM295.395 127.49C296.163 127.49 296.691 127.538 297.267 127.682V133.01C291.747 132.626 289.011 135.074 289.011 141.938V153.65H282.387V128.114H289.011V132.77L291.027 129.218C292.275 128.066 293.955 127.49 295.395 127.49ZM311.427 127.442C318.339 127.442 322.611 131.666 323.091 137.33H316.563C315.939 133.634 314.019 132.098 311.283 132.098C307.923 132.098 305.523 134.834 305.523 140.642C305.523 146.978 307.923 149.666 311.235 149.666C313.827 149.666 315.747 148.034 316.419 144.818H323.043C321.939 151.106 317.235 154.322 310.851 154.322C303.891 154.322 298.659 149.906 298.659 141.074C298.659 132.338 304.419 127.442 311.427 127.442ZM351.101 134.594C351.245 135.89 351.293 137.186 351.293 139.25V153.65H344.669V140.162C344.669 139.106 344.669 137.906 344.573 136.61C344.381 133.922 342.893 132.098 339.677 132.098C336.461 132.146 333.917 134.882 333.917 141.986V153.65H327.293V118.13H333.917V132.242L335.885 129.218C337.709 127.922 339.581 127.442 342.029 127.442C347.453 127.442 350.573 130.13 351.101 134.594ZM360.418 118.61C362.578 118.61 364.066 120.05 364.066 122.114C364.066 124.226 362.578 125.618 360.418 125.618C358.258 125.618 356.77 124.226 356.77 122.114C356.77 120.05 358.258 118.61 360.418 118.61ZM363.73 153.65H357.106V128.114H363.73V153.65ZM394.048 128.114L384.16 153.65H376.768L366.832 128.114H374.176L380.608 148.658L386.896 128.114H394.048ZM419.384 140.354C419.384 140.978 419.384 141.746 419.288 142.61H401.144C401.576 147.986 403.976 149.666 407.048 149.666C409.88 149.666 411.944 148.082 412.376 145.346H419C417.704 151.298 412.904 154.322 406.904 154.322C399.896 154.322 394.472 149.954 394.472 140.978C394.472 133.154 399.608 127.442 407.432 127.442C415.256 127.442 419.384 133.394 419.384 140.354ZM407.144 132.098C404.072 132.098 401.912 134.066 401.336 138.29H412.568C412.136 134.258 410.312 132.098 407.144 132.098ZM433.07 127.442C439.166 127.442 442.622 130.85 443.198 135.506H436.574C436.142 133.154 434.846 131.81 432.638 131.81C430.67 131.81 429.614 132.962 429.614 134.546C429.614 136.466 431.198 137.474 435.422 138.53C440.654 139.874 443.726 141.986 443.726 146.69C443.726 151.826 439.07 154.322 433.214 154.322C427.022 154.322 422.654 151.634 421.934 145.874H428.558C429.086 148.658 431.006 149.954 433.31 149.954C435.422 149.954 437.054 149.042 437.054 147.17C437.054 145.202 435.374 144.098 430.958 142.994C426.206 141.794 422.942 139.73 422.942 135.314C422.942 130.418 426.974 127.442 433.07 127.442Z" fill="black"/>
<path d="M223.323 0H218.526V238H223.323V0Z" fill="black"/>
</g>
<defs>
<clipPath id="clip0_459_1050">
<rect width="484" height="238" fill="white"/>
</clipPath>
</defs>
</svg>
