<svg width="22" height="21" viewBox="0 0 22 21" fill="none" xmlns="http://www.w3.org/2000/svg">
<path fill-rule="evenodd" clip-rule="evenodd" d="M5.90864 0.120605H15.6913C18.7871 0.120605 21.3876 2.65509 21.3876 5.67233V15.0861C21.3876 18.1034 18.7871 20.6378 15.6913 20.6378H5.90864C2.81286 20.6378 0.212402 18.1034 0.212402 15.0861V5.67233C0.212402 2.65509 2.68903 0.120605 5.90864 0.120605ZM16.4343 3.7413C17.0535 3.7413 17.6726 4.22405 17.6726 4.94819C17.6726 5.55164 17.1773 6.15509 16.4343 6.15509C15.6913 6.15509 15.196 5.67233 15.196 4.94819C15.196 4.22405 15.6913 3.7413 16.4343 3.7413ZM10.7381 4.8275C13.9577 4.8275 16.5581 7.36199 16.5581 10.3792C16.5581 13.5172 13.9577 15.931 10.8619 15.931C7.76612 15.931 5.16566 13.3965 5.16566 10.3792C5.04183 7.36199 7.51845 4.8275 10.7381 4.8275ZM10.7381 6.75854C12.8432 6.75854 14.5768 8.44819 14.5768 10.4999C14.5768 12.5516 12.8432 14.2413 10.7381 14.2413C8.63293 14.2413 6.89929 12.5516 6.89929 10.4999C6.89929 8.44819 8.63293 6.75854 10.7381 6.75854ZM5.90864 1.93095H15.5675C17.6726 1.93095 19.5301 3.62061 19.5301 5.79302V15.0861C19.5301 17.1378 17.7965 18.9482 15.5675 18.9482H5.90864C3.80351 18.9482 1.94604 17.2585 1.94604 15.0861V5.79302C1.94604 3.62061 3.80351 1.93095 5.90864 1.93095Z" fill="#999"/>
</svg>
