<svg width="21" height="21" viewBox="0 0 21 21" fill="none" xmlns="http://www.w3.org/2000/svg">
<path d="M18.5976 0.555176H3.24252C1.91753 0.555176 0.84021 1.60518 0.84021 2.89656V17.8621C0.84021 19.1535 1.91753 20.2035 3.24252 20.2035H18.5976C19.9226 20.2035 21 19.1535 21 17.8621V2.89656C21 1.60518 19.9226 0.555176 18.5976 0.555176ZM7.0813 8.03793V16.9207H4.19603V8.03793H7.0813ZM4.07221 5.2138C4.07221 4.3569 4.70374 3.70518 5.64486 3.70518C6.58597 3.70518 7.18037 4.3569 7.21752 5.2138C7.21752 6.07069 6.63551 6.75862 5.64486 6.75862C4.6542 6.75862 4.07221 6.07069 4.07221 5.2138ZM17.6317 16.9207H14.7465V12.2379C14.7465 11.2966 14.2635 10.3672 13.0624 10.3431H13.0252C11.8612 10.3431 11.3783 11.3086 11.3783 12.2379V16.9207H8.49298V8.03793H11.3783V9.23276C11.3783 9.23276 12.307 8.03793 14.1645 8.03793C16.0219 8.03793 17.6193 9.31724 17.6193 11.9V16.9207H17.6317Z" fill="#999"/>
</svg>
