<svg width="125" height="53" viewBox="0 0 125 53" fill="none" xmlns="http://www.w3.org/2000/svg">
<path d="M12.3028 8.62109C12.1935 8.62109 12.0963 8.62109 12.0963 8.73037L9.9224 10.9038C9.81309 11.0131 9.81309 11.2195 9.9224 11.3166L20.9015 22.293L31.8805 11.3166C31.9898 11.2073 31.9898 11.0009 31.8805 10.9038L29.7066 8.73037C29.5973 8.62109 29.3908 8.62109 29.1843 8.73037L20.8893 17.0234L12.5943 8.73037C12.485 8.62109 12.3878 8.62109 12.2785 8.62109H12.3028ZM8.465 12.3487C8.3557 12.3487 8.25854 12.3487 8.25854 12.458L6.08459 14.6314C5.97528 14.7407 5.97528 14.9471 6.08459 15.1535L14.3796 23.4465L0.0728233 37.7377C-0.0364815 37.847 -0.0364815 38.0534 0.0728233 38.2598L2.24677 40.4332C2.35608 40.5425 2.56254 40.5425 2.6597 40.4332L19.6505 23.4465L16.9543 20.751L8.65932 12.458C8.65932 12.458 8.55002 12.458 8.45286 12.3487H8.465ZM33.2286 12.3487C33.1193 12.3487 33.0221 12.3487 33.0221 12.458L24.7271 20.751L22.0309 23.4465L39.0218 40.4332C39.1311 40.5425 39.3375 40.5425 39.4347 40.4332L41.6086 38.2598C41.7179 38.1505 41.7179 37.9441 41.6086 37.7377L27.314 23.4465L35.609 15.1535C35.7183 15.0442 35.7183 14.8378 35.609 14.6314L33.4351 12.458C33.4351 12.458 33.3258 12.3487 33.2286 12.3487ZM20.9015 24.6729L18.2053 27.3684L3.91064 41.6596C3.80133 41.7689 3.80133 41.9753 3.91064 42.1817L6.08459 44.3551C6.19389 44.4644 6.40036 44.4644 6.60682 44.3551L20.9015 30.0639L35.1961 44.3551C35.3054 44.4644 35.5119 44.4644 35.7183 44.3551L37.8923 42.1817C38.0016 42.0724 38.0016 41.866 37.8923 41.6596L23.5976 27.3684L20.9015 24.6729Z" fill="#E9190F"/>
<path d="M62.5647 14.6283H59.7567V21.6123H58.1007V14.6283H55.2927V13.3323H62.5647V14.6283ZM69.0841 16.8483C69.1201 17.1723 69.1321 17.4963 69.1321 18.0123V21.6123H67.4761V18.2403C67.4761 17.9763 67.4761 17.6763 67.4521 17.3523C67.4041 16.6803 67.0321 16.2243 66.2281 16.2243C65.4241 16.2363 64.7881 16.9203 64.7881 18.6963V21.6123H63.1321V12.7323H64.7881V16.2603L65.2801 15.5043C65.7361 15.1803 66.2041 15.0603 66.8161 15.0603C68.1721 15.0603 68.9521 15.7323 69.0841 16.8483ZM76.3812 18.2883C76.3812 18.4443 76.3812 18.6363 76.3572 18.8523H71.8212C71.9292 20.1963 72.5292 20.6163 73.2972 20.6163C74.0052 20.6163 74.5212 20.2203 74.6292 19.5363H76.2852C75.9612 21.0243 74.7612 21.7803 73.2612 21.7803C71.5092 21.7803 70.1532 20.6883 70.1532 18.4443C70.1532 16.4883 71.4372 15.0603 73.3932 15.0603C75.3492 15.0603 76.3812 16.5483 76.3812 18.2883ZM73.3212 16.2243C72.5532 16.2243 72.0132 16.7163 71.8692 17.7723H74.6772C74.5692 16.7643 74.1132 16.2243 73.3212 16.2243ZM84.6548 19.1163H81.8708L81.0428 21.6123H79.2788L82.2668 13.3323H84.3428L87.2708 21.6123H85.4708L84.6548 19.1163ZM83.2748 14.7483L82.2908 17.8083H84.2348L83.2748 14.7483ZM97.4441 16.6443C97.4921 16.9683 97.5041 17.2923 97.5041 17.8083V21.6123H95.8481V18.2883C95.8481 17.9163 95.8361 17.5683 95.8001 17.2443C95.7161 16.5843 95.3561 16.2243 94.7201 16.2243C93.9761 16.2243 93.5561 16.8603 93.5561 18.3363V21.6123H91.9121V18.2883C91.9121 17.9163 91.9001 17.5683 91.8641 17.2443C91.7801 16.5843 91.4081 16.2243 90.7721 16.2243C90.0281 16.2243 89.6201 16.8603 89.6201 18.3363V21.6123H87.9641V15.2283H89.6201V16.2003L90.0881 15.4323C90.4481 15.1803 90.8681 15.0603 91.4441 15.0603C92.4881 15.0603 93.1481 15.5763 93.4001 16.2723L94.0241 15.4323C94.3841 15.1803 94.8161 15.0603 95.3921 15.0603C96.6041 15.0603 97.3001 15.7683 97.4441 16.6443ZM104.752 18.2883C104.752 18.4443 104.752 18.6363 104.728 18.8523H100.192C100.3 20.1963 100.9 20.6163 101.668 20.6163C102.376 20.6163 102.892 20.2203 103 19.5363H104.656C104.332 21.0243 103.132 21.7803 101.632 21.7803C99.8803 21.7803 98.5243 20.6883 98.5243 18.4443C98.5243 16.4883 99.8083 15.0603 101.764 15.0603C103.72 15.0603 104.752 16.5483 104.752 18.2883ZM101.692 16.2243C100.924 16.2243 100.384 16.7163 100.24 17.7723H103.048C102.94 16.7643 102.484 16.2243 101.692 16.2243ZM109.602 21.6123L109.482 20.6763L109.17 21.3603C108.726 21.6603 108.186 21.7803 107.586 21.7803C106.482 21.7803 105.534 21.1323 105.534 19.9203C105.534 18.5163 106.734 17.7243 109.05 17.7243H109.458V17.5923C109.458 17.4003 109.458 17.2083 109.434 16.9923C109.386 16.5483 109.098 16.2243 108.45 16.2243C107.79 16.2243 107.43 16.6083 107.382 17.3043L105.774 17.3163C105.822 15.8763 106.986 15.0603 108.51 15.0603C110.298 15.0603 110.97 15.8403 111.066 16.9443C111.09 17.2443 111.102 17.5803 111.102 17.9283V19.9923C111.102 20.4723 111.126 20.9043 111.222 21.6123H109.602ZM108.222 20.6163C108.894 20.6163 109.458 20.1483 109.458 19.2603V18.7443C108.138 18.6483 107.25 18.9483 107.25 19.7883C107.25 20.3523 107.634 20.6163 108.222 20.6163Z" fill="black"/>
<path d="M60.5727 32.254H57.7887L56.9607 34.75H55.1967L58.1847 26.47H60.2607L63.1887 34.75H61.3887L60.5727 32.254ZM59.1927 27.886L58.2087 30.946H60.1527L59.1927 27.886ZM67.1341 28.21C67.3261 28.21 67.4581 28.222 67.6021 28.258V29.59C66.2221 29.494 65.5381 30.106 65.5381 31.822V34.75H63.8821V28.366H65.5381V29.53L66.0421 28.642C66.3541 28.354 66.7741 28.21 67.1341 28.21ZM71.1421 28.198C72.8701 28.198 73.9381 29.254 74.0581 30.67H72.4261C72.2701 29.746 71.7901 29.362 71.1061 29.362C70.2661 29.362 69.6661 30.046 69.6661 31.498C69.6661 33.082 70.2661 33.754 71.0941 33.754C71.7421 33.754 72.2221 33.346 72.3901 32.542H74.0461C73.7701 34.114 72.5941 34.918 70.9981 34.918C69.2581 34.918 67.9501 33.814 67.9501 31.606C67.9501 29.422 69.3901 28.198 71.1421 28.198ZM81.0607 29.986C81.0967 30.31 81.1087 30.634 81.1087 31.15V34.75H79.4527V31.378C79.4527 31.114 79.4527 30.814 79.4287 30.49C79.3807 29.818 79.0087 29.362 78.2047 29.362C77.4007 29.374 76.7647 30.058 76.7647 31.834V34.75H75.1087V25.87H76.7647V29.398L77.2567 28.642C77.7127 28.318 78.1807 28.198 78.7927 28.198C80.1487 28.198 80.9287 28.87 81.0607 29.986ZM83.3898 25.99C83.9298 25.99 84.3018 26.35 84.3018 26.866C84.3018 27.394 83.9298 27.742 83.3898 27.742C82.8498 27.742 82.4778 27.394 82.4778 26.866C82.4778 26.35 82.8498 25.99 83.3898 25.99ZM84.2178 34.75H82.5618V28.366H84.2178V34.75ZM91.7973 28.366L89.3253 34.75H87.4773L84.9933 28.366H86.8293L88.4373 33.502L90.0093 28.366H91.7973ZM98.1312 31.426C98.1312 31.582 98.1312 31.774 98.1072 31.99H93.5712C93.6792 33.334 94.2792 33.754 95.0472 33.754C95.7552 33.754 96.2712 33.358 96.3792 32.674H98.0352C97.7112 34.162 96.5112 34.918 95.0112 34.918C93.2592 34.918 91.9032 33.826 91.9032 31.582C91.9032 29.626 93.1872 28.198 95.1432 28.198C97.0992 28.198 98.1312 29.686 98.1312 31.426ZM95.0712 29.362C94.3032 29.362 93.7632 29.854 93.6192 30.91H96.4272C96.3192 29.902 95.8632 29.362 95.0712 29.362ZM101.553 28.198C103.077 28.198 103.941 29.05 104.085 30.214H102.429C102.321 29.626 101.997 29.29 101.445 29.29C100.953 29.29 100.689 29.578 100.689 29.974C100.689 30.454 101.085 30.706 102.141 30.97C103.449 31.306 104.217 31.834 104.217 33.01C104.217 34.294 103.053 34.918 101.589 34.918C100.041 34.918 98.9487 34.246 98.7687 32.806H100.425C100.557 33.502 101.037 33.826 101.613 33.826C102.141 33.826 102.549 33.598 102.549 33.13C102.549 32.638 102.129 32.362 101.025 32.086C99.8367 31.786 99.0207 31.27 99.0207 30.166C99.0207 28.942 100.029 28.198 101.553 28.198Z" fill="black"/>
<path d="M49.758 0H48.6892V53H49.758V0Z" fill="black"/>
</svg>
