<svg width="344" height="416" viewBox="0 0 344 416" fill="none" xmlns="http://www.w3.org/2000/svg">
<path d="M3.91532 1C2.71539 1 1.53064 1 1.53064 2.19994L-23.5617 27.2923C-24.7617 28.4922 -24.7617 30.8769 -23.5617 32.0768L103.115 158.754L229.762 32.0768C230.962 30.8769 230.962 28.4922 229.762 27.2923L204.669 2.19994C203.469 1 201.085 1 198.7 2.19994L103.1 97.8L7.49994 2.19994C6.30001 1 5.11526 1 3.91532 1ZM-40.3001 44.0155C-41.5 44.0155 -42.6848 44.0155 -42.6848 45.2154L-67.7771 70.3078C-68.9771 71.5077 -68.9771 73.8924 -67.7771 76.2771L27.8229 171.877L-137.1 336.8C-138.3 338 -138.3 340.385 -137.1 342.769L-112.008 367.862C-110.808 369.062 -108.423 369.062 -107.223 367.862L88.7615 171.892L57.6846 140.815L-37.9154 45.2154C-37.9154 45.2154 -39.1153 45.2154 -40.3001 44.0155ZM245.3 44.0155C244.1 44.0155 242.915 44.0155 242.915 45.2154L147.315 140.815L116.239 171.892L312.223 367.877C313.423 369.077 315.808 369.077 317.008 367.877L342.1 342.785C343.3 341.585 343.3 339.2 342.1 336.815L177.192 171.907L272.792 76.3074C273.992 75.1075 273.992 72.7228 272.792 70.3381L247.7 45.2458C247.7 45.2458 246.5 44.0458 245.315 44.0458L245.3 44.0155ZM103.1 186.216L72.0231 217.292L-92.8847 382.2C-94.0846 383.4 -94.0846 385.785 -92.8847 388.17L-67.7923 413.262C-66.5924 414.462 -64.2077 414.462 -61.823 413.262L103.085 248.354L267.993 413.262C269.193 414.462 271.577 414.462 273.962 413.262L299.054 388.17C300.254 386.97 300.254 384.585 299.054 382.2L134.146 217.292L103.07 186.216H103.1Z" stroke="black" stroke-width="2" stroke-miterlimit="10"/>
</svg>
