<svg width="132" height="187" viewBox="0 0 132 187" fill="none" xmlns="http://www.w3.org/2000/svg">
<path d="M64.4341 1C63.8977 1 63.3682 1 63.3682 1.53729L52.1522 12.7728C51.6159 13.3101 51.6159 14.3779 52.1522 14.9152L108.775 71.6368L165.384 14.9152C165.92 14.3779 165.92 13.3101 165.384 12.7728L154.168 1.53729C153.632 1 152.566 1 151.5 1.53729L108.768 44.3438L66.0364 1.53729C65.5 1 64.9704 1 64.4341 1ZM44.6704 20.2609C44.1341 20.2609 43.6045 20.2609 43.6045 20.7982L32.3886 32.0337C31.8523 32.571 31.8523 33.6388 32.3886 34.7065L75.1204 77.513L1.40227 151.36C0.865911 151.897 0.865911 152.965 1.40227 154.033L12.6182 165.268C13.1545 165.806 14.2205 165.806 14.7568 165.268L102.359 77.5198L88.4682 63.6047L45.7364 20.7982C45.7364 20.7982 45.2 20.7982 44.6704 20.2609ZM172.33 20.2609C171.793 20.2609 171.264 20.2609 171.264 20.7982L128.532 63.6047L114.641 77.5198L202.243 165.275C202.78 165.812 203.845 165.812 204.382 165.275L215.598 154.04C216.134 153.502 216.134 152.435 215.598 151.367L141.886 77.5266L184.618 34.7201C185.155 34.1829 185.155 33.1151 184.618 32.0473L173.402 20.8118C173.402 20.8118 172.866 20.2745 172.336 20.2745L172.33 20.2609ZM108.768 83.9333L94.8773 97.8485L21.1659 171.689C20.6296 172.226 20.6296 173.294 21.1659 174.361L32.3818 185.597C32.9182 186.134 33.9841 186.134 35.05 185.597L108.761 111.757L182.473 185.597C183.009 186.134 184.075 186.134 185.141 185.597L196.357 174.361C196.893 173.824 196.893 172.756 196.357 171.689L122.646 97.8485L108.755 83.9333H108.768Z" stroke="black" stroke-width="2" stroke-miterlimit="10"/>
</svg>
