<svg width="376" height="416" viewBox="0 0 376 416" fill="none" xmlns="http://www.w3.org/2000/svg">
<path d="M142.915 1C141.715 1 140.531 1 140.531 2.19994L115.438 27.2923C114.238 28.4922 114.238 30.8769 115.438 32.0768L242.115 158.754L368.762 32.0768C369.962 30.8769 369.962 28.4922 368.762 27.2923L343.669 2.19994C342.469 1 340.085 1 337.7 2.19994L242.1 97.8L146.5 2.19994C145.3 1 144.115 1 142.915 1ZM98.6999 44.0155C97.5 44.0155 96.3152 44.0155 96.3152 45.2154L71.2229 70.3078C70.0229 71.5077 70.0229 73.8924 71.2229 76.2771L166.823 171.877L1.89995 336.8C0.700016 338 0.700016 340.385 1.89995 342.769L26.9923 367.862C28.1922 369.062 30.5769 369.062 31.7769 367.862L227.761 171.892L196.685 140.815L101.085 45.2154C101.085 45.2154 99.8847 45.2154 98.6999 44.0155ZM384.3 44.0155C383.1 44.0155 381.915 44.0155 381.915 45.2154L286.315 140.815L255.239 171.892L451.223 367.877C452.423 369.077 454.808 369.077 456.008 367.877L481.1 342.785C482.3 341.585 482.3 339.2 481.1 336.815L316.192 171.907L411.792 76.3074C412.992 75.1075 412.992 72.7228 411.792 70.3381L386.7 45.2458C386.7 45.2458 385.5 44.0458 384.315 44.0458L384.3 44.0155ZM242.1 186.216L211.023 217.292L46.1153 382.2C44.9154 383.4 44.9154 385.785 46.1153 388.17L71.2077 413.262C72.4076 414.462 74.7923 414.462 77.177 413.262L242.085 248.354L406.993 413.262C408.193 414.462 410.577 414.462 412.962 413.262L438.054 388.17C439.254 386.97 439.254 384.585 438.054 382.2L273.146 217.292L242.07 186.216H242.1Z" stroke="black" stroke-width="2" stroke-miterlimit="10"/>
</svg>
