<svg width="116" height="187" viewBox="0 0 116 187" fill="none" xmlns="http://www.w3.org/2000/svg">
<path d="M-36.5659 1C-37.1023 1 -37.6318 1 -37.6318 1.53729L-48.8478 12.7728C-49.3841 13.3101 -49.3841 14.3779 -48.8478 14.9152L7.77497 71.6368L64.3841 14.9152C64.9205 14.3779 64.9205 13.3101 64.3841 12.7728L53.1682 1.53729C52.6318 1 51.5659 1 50.5 1.53729L7.76818 44.3438L-34.9636 1.53729C-35.5 1 -36.0296 1 -36.5659 1ZM-56.3296 20.2609C-56.8659 20.2609 -57.3955 20.2609 -57.3955 20.7982L-68.6114 32.0337C-69.1477 32.571 -69.1477 33.6388 -68.6114 34.7065L-25.8796 77.513L-99.5977 151.36C-100.134 151.897 -100.134 152.965 -99.5977 154.033L-88.3818 165.268C-87.8455 165.806 -86.7795 165.806 -86.2432 165.268L1.35908 77.5198L-12.5318 63.6047L-55.2636 20.7982C-55.2636 20.7982 -55.8 20.7982 -56.3296 20.2609ZM71.3296 20.2609C70.7932 20.2609 70.2636 20.2609 70.2636 20.7982L27.5318 63.6047L13.6409 77.5198L101.243 165.275C101.78 165.812 102.845 165.812 103.382 165.275L114.598 154.04C115.134 153.502 115.134 152.435 114.598 151.367L40.8864 77.5266L83.6182 34.7201C84.1545 34.1828 84.1545 33.1151 83.6182 32.0473L72.4023 20.8118C72.4023 20.8118 71.8659 20.2745 71.3363 20.2745L71.3296 20.2609ZM7.76818 83.9333L-6.12272 97.8485L-79.8341 171.689C-80.3704 172.226 -80.3704 173.294 -79.8341 174.362L-68.6182 185.597C-68.0818 186.134 -67.0159 186.134 -65.95 185.597L7.76139 111.757L81.4728 185.597C82.0091 186.134 83.075 186.134 84.141 185.597L95.3569 174.362C95.8932 173.824 95.8932 172.756 95.3569 171.689L21.6455 97.8485L7.75461 83.9333H7.76818Z" stroke="black" stroke-width="2" stroke-miterlimit="10"/>
</svg>
