<svg width="19" height="21" viewBox="0 0 19 21" fill="none" xmlns="http://www.w3.org/2000/svg">
<path d="M14.5578 9.65509C14.4339 9.65509 14.4339 9.5344 14.3101 9.5344C14.1863 6.63785 12.5765 4.94819 9.85217 4.94819C8.24237 4.94819 6.88023 5.67233 6.01341 6.87923L7.49938 7.84474C8.11854 6.87923 9.10919 6.75854 9.85217 6.75854C10.719 6.75854 11.462 6.99992 11.8335 7.48268C12.205 7.84474 12.3288 8.3275 12.4526 8.93095C11.7097 8.81026 10.8428 8.81026 9.85217 8.81026C7.25171 8.93095 5.64191 10.3792 5.64191 12.431C5.64191 13.5172 6.26107 14.362 7.12789 14.9654C7.87088 15.4482 8.86152 15.6896 9.85217 15.6896C11.2143 15.5689 12.3288 15.0861 13.0718 14.2413C13.691 13.5172 13.9386 12.6723 14.1863 11.4654C14.8054 11.8275 15.3008 12.3103 15.5484 12.9137C16.0438 13.8792 16.0437 15.5689 14.5578 17.0172C13.3195 18.2241 11.8335 18.7068 9.60452 18.7068C7.12789 18.7068 5.27042 17.862 4.0321 16.4137C2.91762 14.9654 2.29847 12.9137 2.29847 10.3792C2.29847 7.84474 2.91762 5.67233 4.0321 4.34474C5.27042 2.77578 7.12789 2.05164 9.60452 2.05164C12.0811 2.05164 14.0625 2.89647 15.3008 4.34474C15.9199 5.06888 16.4152 6.0344 16.6629 7.12061L18.3966 6.63785C18.0251 5.31026 17.4059 4.10336 16.6629 3.13785C15.0531 1.20681 12.7003 0.241295 9.60452 0.120605C6.50873 0.120605 4.15593 1.08612 2.66995 3.13785C1.3078 4.8275 0.564819 7.36199 0.564819 10.3792C0.564819 13.3965 1.3078 15.8103 2.66995 17.6206C4.27976 19.5516 6.63256 20.6378 9.60452 20.6378C12.3288 20.6378 14.1863 19.9137 15.7961 18.3447C17.9012 16.293 17.7774 13.7585 17.1582 12.3103C16.6629 11.1034 15.7961 10.2585 14.5578 9.65509ZM9.85217 13.9999C8.73769 14.1206 7.49938 13.5172 7.49938 12.5516C7.49938 11.7068 8.11854 10.862 9.97601 10.7413H10.5952C11.2143 10.7413 11.9573 10.862 12.4526 10.9827C12.205 13.5172 10.9667 13.8792 9.85217 13.9999Z" fill="#999"/>
</svg>
