<svg width="22" height="21" viewBox="0 0 22 21" fill="none" xmlns="http://www.w3.org/2000/svg">
<path fill-rule="evenodd" clip-rule="evenodd" d="M7.40346 5.79294C8.02262 5.43087 8.3941 5.67225 8.51793 6.27569L9.01325 7.60328C9.01325 7.60328 9.38475 8.32742 8.3941 9.05156C8.31154 9.13202 8.27028 9.25271 8.27028 9.41362C8.51794 10.0171 9.38476 11.9481 11.9852 13.3964C12.2329 13.5171 12.3567 13.5171 12.6044 13.3964L13.3474 12.6722C13.8427 12.3102 14.0904 12.0688 14.4618 12.4309C14.8333 12.6722 15.081 12.9136 15.4525 13.155C15.824 13.3964 16.3193 13.7585 15.824 14.3619L15.3287 14.9653C14.5857 15.8102 14.0903 15.8102 13.0997 15.6895C9.63241 14.8447 7.15579 12.4309 6.04131 9.05156C5.79364 7.48259 6.28898 6.39638 7.40346 5.79294ZM11.1184 0.241211C16.9385 0.241211 21.5202 4.82742 21.5202 10.3791C21.5202 15.9309 16.8146 20.5171 11.1184 20.5171C9.50859 20.5171 8.02261 20.155 6.66046 19.5516L1.08805 20.5171L1.83105 15.086V14.9653C1.08806 13.5171 0.716553 11.9481 0.716553 10.2585C0.716553 4.82742 5.42216 0.241211 11.1184 0.241211ZM4.55533 18.3447L6.04131 18.1033L6.90812 17.9826C8.14644 18.7067 9.50859 19.0688 11.1184 19.0688C15.9478 19.0688 19.9104 15.2067 19.9104 10.4998C19.9104 5.79293 15.9478 1.93087 11.1184 1.93087C6.28898 1.93087 2.32636 5.79293 2.32636 10.4998C2.32636 12.1895 2.8217 13.7585 3.68852 15.086L3.56468 15.8102L3.31702 17.3791L3.19318 18.586L4.55533 18.3447Z" fill="#999"/>
</svg>
